<?xml version="1.0" encoding="utf-8"?>
<!-- Generator: Adobe Illustrator 22.1.0, SVG Export Plug-In . SVG Version: 6.00 Build 0)  -->
<svg version="1.1" id="Layer_1_1_" xmlns="http://www.w3.org/2000/svg" xmlns:xlink="http://www.w3.org/1999/xlink" x="0px" y="0px"
	 viewBox="0 0 512 512" style="enable-background:new 0 0 512 512;" xml:space="preserve">
<style type="text/css">
	.st0{fill:#FFFFFF;}
</style>
<path class="st0" d="M240.4,72.4l-11.3-11.3c28.1-28.1,73.8-28.1,101.8,0l-11.3,11.3C297.8,50.6,262.2,50.6,240.4,72.4z M424,152
	c0-17.6-14.4-32-32-32v16c8.8,0,16,7.2,16,16s-7.2,16-16,16v16C409.6,184,424,169.6,424,152z M504,176v240c0,22.1-17.9,40-40,40H360
	v32h32v16H120v-16h32v-32H48c-22.1,0-40-17.9-40-40V176c0-22.1,17.9-40,40-40h10.1c6.9-26.5,30.3-46.5,58.6-47.9
	C126.3,64.2,149.9,48,176,48c6.8,0,13.4,1.1,19.8,3.2C215.3,24,246.4,8,280,8c48.6,0,90.7,34.2,101.3,80.9c3.5-0.6,7.1-0.9,10.7-0.9
	c29.8,0,54.8,20.4,61.9,48H464C486.1,136,504,153.9,504,176z M24,176v216h464V176c0-13.2-10.8-24-24-24h-8c0,35.3-28.7,64-64,64h-48
	v-16h48c26.5,0,48-21.5,48-48s-21.5-48-48-48c-4.9,0-9.9,0.8-14.6,2.3l-9,2.9l-1.3-9.4C361,56.6,323.6,24,280,24
	c-30.3,0-58.1,15.4-74.4,41.2l-3.7,5.9l-6.3-2.8c-6.2-2.8-12.8-4.2-19.6-4.2c-21.1,0-40,14.1-46,34.4l-1.8,6L120,104
	c-26.5,0-48,21.5-48,48s21.5,48,48,48h48v16h-48c-35.3,0-64-28.7-64-64h-8C34.8,152,24,162.8,24,176z M344,456H168v32h176V456z
	 M488,416v-8H24v8c0,13.2,10.8,24,24,24h416C477.2,440,488,429.2,488,416z M280,352c0,13.2-10.8,24-24,24s-24-10.8-24-24
	c0-10.4,6.7-19.2,16-22.5V288h16v41.5C273.3,332.8,280,341.6,280,352z M264,352c0-4.4-3.6-8-8-8s-8,3.6-8,8s3.6,8,8,8
	C260.4,360,264,356.4,264,352z M264,160h-16v112h16V160z M328,304h65.5c3.3-9.3,12.1-16,22.5-16c13.2,0,24,10.8,24,24
	s-10.8,24-24,24c-10.4,0-19.2-6.7-22.5-16H312V192h16V304z M408,312c0,4.4,3.6,8,8,8s8-3.6,8-8s-3.6-8-8-8S408,307.6,408,312z
	 M328,160h-16v16h16V160z M72,312c0-13.2,10.8-24,24-24c10.4,0,19.2,6.7,22.5,16H184v-72h16v88h-81.5c-3.3,9.3-12.1,16-22.5,16
	C82.8,336,72,325.2,72,312z M88,312c0,4.4,3.6,8,8,8s8-3.6,8-8s-3.6-8-8-8S88,307.6,88,312z M200,160h-16v56h16V160z"/>
</svg>
