<?xml version="1.0" encoding="iso-8859-1"?>
<!-- Generator: Adobe Illustrator 19.0.0, SVG Export Plug-In . SVG Version: 6.00 Build 0)  -->
<svg version="1.1" id="Capa_1" xmlns="http://www.w3.org/2000/svg" xmlns:xlink="http://www.w3.org/1999/xlink" x="0px" y="0px"
	 viewBox="0 0 512 512" style="enable-background:new 0 0 512 512;" xml:space="preserve">
<path style="fill:#C4E9F9;" d="M385.75,346c-9.098,0-18.097,0.965-26.894,2.878c-9.832-23.621-25.994-44.617-46.502-60.133
	c-25.288-19.133-55.458-29.246-87.247-29.246c-77.602,0-141.137,61.381-144.599,138.144c-46.106,9.758-80.47,50.935-80.47,99.283
	v14.998H506.18l2.65-11.679c2.079-9.161,3.132-18.592,3.132-28.033C511.963,402.618,455.344,346,385.75,346z"/>
<path style="fill:#9DDAF5;" d="M385.75,346c-9.098,0-18.097,0.965-26.894,2.878c-9.832-23.621-25.994-44.617-46.502-60.133
	c-25.288-19.133-55.458-29.246-87.247-29.246c-2.259,0-4.504,0.057-6.739,0.16v252.266H506.18l2.65-11.679
	c2.079-9.161,3.132-18.592,3.132-28.033C511.963,402.618,455.344,346,385.75,346z"/>
<path style="fill:#72C9F1;" d="M385.795,346.011c-0.738,0-1.473,0.016-2.209,0.028v-0.153c-45.686,0-88.292,24.59-111.192,64.175
	l25.964,15.02c12.207-21.101,36.181-38.722,54.243-44.148c18.548-5.572,26.252-4.93,33.177-4.926
	c53.054,0.029,96.165,43.215,96.165,96.269c0,17.985-5.648,39.569-5.648,39.569L506.136,512l2.657-11.678
	c2.083-9.159,3.142-18.59,3.146-28.031C511.977,402.698,455.389,346.049,385.795,346.011z"/>
<rect x="203.37" y="154.747" style="fill:#3A3A3A;" width="29.996" height="165.205"/>
<path style="fill:#FC0023;" d="M441.821,0H203.37v168.321h236.965l-44.392-88.038L441.821,0z"/>
<g>
	<rect x="34.035" y="191.971" style="fill:#4BBAED;" width="29.996" height="29.996"/>
	<rect x="34.035" y="106.654" style="fill:#4BBAED;" width="29.996" height="29.996"/>
	<rect x="98.026" y="149.308" style="fill:#4BBAED;" width="29.996" height="29.996"/>
	<rect x="383.984" y="236.635" style="fill:#4BBAED;" width="29.996" height="29.996"/>
</g>
<polygon style="fill:#CC001C;" points="441.821,0 315.815,0 315.815,168.321 440.336,168.321 395.943,80.283 "/>
<g>
</g>
<g>
</g>
<g>
</g>
<g>
</g>
<g>
</g>
<g>
</g>
<g>
</g>
<g>
</g>
<g>
</g>
<g>
</g>
<g>
</g>
<g>
</g>
<g>
</g>
<g>
</g>
<g>
</g>
</svg>
