<?xml version="1.0" encoding="iso-8859-1"?>
<!-- Generator: Adobe Illustrator 19.0.0, SVG Export Plug-In . SVG Version: 6.00 Build 0)  -->
<svg version="1.1" id="Capa_1" xmlns="http://www.w3.org/2000/svg" xmlns:xlink="http://www.w3.org/1999/xlink" x="0px" y="0px"
	 viewBox="0 0 512 512" style="enable-background:new 0 0 512 512;" xml:space="preserve">
<path style="fill:#53433F;" d="M451,331c-14.399,85.199-88.2,150-177.299,150h-35.402C149.2,481,75.399,416.199,61,331l36.599-30
	h315L451,331z"/>
<path style="fill:#3E322E;" d="M412.599,301L451,331c-14.399,85.199-88.2,150-177.299,150H256V301H412.599z"/>
<polygon style="fill:#FEDB41;" points="451,271 451,331 61,331 61,271 94.9,241 421,241 "/>
<polygon style="fill:#FCBF29;" points="451,271 451,331 256,331 256,241 421,241 "/>
<polygon style="fill:#17ACE8;" points="512,151 481,241 451,271 61,271 31,241 0,151 256,31 "/>
<polygon style="fill:#1689FC;" points="512,151 481,241 451,271 256,271 256,31 "/>
<path style="fill:#FFEEE6;" d="M211,121v32.699c0,30.901,12.599,60.901,34.501,82.8l10.499,10.8l10.499-10.8
	C288.401,214.6,301,184.6,301,153.699V121H211z"/>
<path style="fill:#E1D3CE;" d="M301,121v32.699c0,30.901-12.599,60.901-34.501,82.8L256,247.299V121H301z"/>
<g>
</g>
<g>
</g>
<g>
</g>
<g>
</g>
<g>
</g>
<g>
</g>
<g>
</g>
<g>
</g>
<g>
</g>
<g>
</g>
<g>
</g>
<g>
</g>
<g>
</g>
<g>
</g>
<g>
</g>
</svg>
