<?xml version="1.0" encoding="utf-8"?>
<!-- Generator: Adobe Illustrator 22.1.0, SVG Export Plug-In . SVG Version: 6.00 Build 0)  -->
<svg version="1.1" id="Layer_1_1_" xmlns="http://www.w3.org/2000/svg" xmlns:xlink="http://www.w3.org/1999/xlink" x="0px" y="0px"
	 viewBox="0 0 512 512" style="enable-background:new 0 0 512 512;" xml:space="preserve">
<style type="text/css">
	.st0{fill:#FFFFFF;}
</style>
<path class="st0" d="M264,464v40h-16v-40H264z M296,440h-16v32h16V440z M232,440h-16v32h16V440z M320,216c0,35.3-28.7,64-64,64
	s-64-28.7-64-64s28.7-64,64-64S320,180.7,320,216z M304,216c0-26.5-21.5-48-48-48s-48,21.5-48,48s21.5,48,48,48S304,242.5,304,216z
	 M288,216c0,17.6-14.4,32-32,32s-32-14.4-32-32s14.4-32,32-32S288,198.4,288,216z M272,216c0-8.8-7.2-16-16-16s-16,7.2-16,16
	s7.2,16,16,16S272,224.8,272,216z M504,216c0,30.9-25.1,56-56,56H344.4c-0.2,1.5-0.5,2.9-0.7,4.4l72.3,72.3v53.6L311,376h-8.3l-8,48
	h-77.5l-8-48H201L96,402.2v-53.6l72.3-72.3c-4.4-26.6-7.7-57.8-8.2-92.4H56c-26.5,0-48-21.5-48-48c0-23.9,17.6-43.8,40.5-47.4
	C52.2,61.2,75.6,40,104,40c14.5,0,27.7,5.6,37.7,14.7c8.1-4.3,17-6.7,26.3-6.7c11.1,0,21.8,3.3,30.9,9.3
	c24.3-32.1,51.3-47.2,53.3-48.4l3.8-2.1l3.8,2.1c2.9,1.6,55.5,31.1,79.9,96.9c10.9-6.4,23.4-9.8,36.2-9.8c37,0,67.5,28.1,71.5,64
	c0.2,0,0.3,0,0.5,0C478.9,160,504,185.1,504,216z M193.6,96.8c17.4,15,39.3,23.2,62.4,23.2c23,0,44.9-8.2,62.2-23
	c-20.1-41.5-51.5-64.6-62.3-71.6C244.9,32.4,213.6,55.1,193.6,96.8z M56,168h104.2c1.5-40.9,14.1-73.1,29.6-97.5
	c-11.1-7.1-25.6-8.1-37.7-3c5,8.4,7.9,18.1,7.9,28.6h-16c0-22.1-17.9-40-40-40c-19.6,0-35.9,14.2-39.3,32.8C87,93,104,112.5,104,136
	H88c0-17.6-14.4-32-32-32s-32,14.4-32,32S38.4,168,56,168z M112,381.8l77.4-19.4c-1.5-4.4-3.5-10.5-5.8-18.1l-29.7,7.4l-3.9-15.5
	l29.3-7.3c-2.5-9.7-5.1-20.9-7.6-33.4L112,355.3V381.8z M286.6,376h-61.1l5.3,32h50.5L286.6,376z M306.4,360
	c6.7-19.1,29.6-90.6,29.6-184c0-24.3-4.4-45.5-11.2-63.7C305.2,127.6,281.2,136,256,136c-25.3,0-49.4-8.4-69-23.8
	c-6.7,18.2-11,39.4-11,63.8c0,93.4,22.8,164.9,29.6,184H306.4z M340.2,295.5c-2.5,12.5-5.1,23.7-7.6,33.4l29.3,7.3l-3.9,15.5
	l-29.7-7.4c-2.2,7.6-4.2,13.6-5.8,18.1l77.4,19.4v-26.4L340.2,295.5z M488,216c0-22.1-17.9-40-40-40s-40,17.9-40,40h-16
	c0-25.2,16.8-46.6,39.7-53.6C428.9,134.2,405,112,376,112c-11.2,0-22,3.4-31.2,9.6c4.5,16.2,7.2,34.3,7.2,54.4c0,29.2-2.1,56-5.3,80
	H448C470.1,256,488,238.1,488,216z M216,504h16v-16h-16V504z M280,504h16v-16h-16V504z"/>
</svg>
