<svg xmlns="http://www.w3.org/2000/svg" viewBox="0 0 403.23 370.45"><defs><style>.cls-1{isolation:isolate;}.cls-2{fill:#fff5ec;}.cls-3{fill:#fff;}.cls-4{opacity:0.54;}.cls-5{fill:#ffbe13;}.cls-6{fill:#d2d2d2;}.cls-7{fill:#eddcce;}.cls-8{fill:#ffc9ae;}.cls-9{fill:#ffb890;}.cls-10{fill:#363636;}.cls-11{fill:#073d4c;}.cls-12{fill:#074559;}.cls-13{fill:#919191;}.cls-14{fill:#d1d1d1;}.cls-15,.cls-16{fill:#c9c9c9;}.cls-16{opacity:0.21;}.cls-16,.cls-19{mix-blend-mode:multiply;}.cls-17{fill:#0c5870;}.cls-18,.cls-19{fill:#b64401;}.cls-19{opacity:0.31;}.cls-20{fill:#f29b62;}.cls-21{opacity:0.68;}.cls-22{fill:#f29d86;}</style></defs><title>thank-you</title><g class="cls-1"><g id="Warstwa_2" data-name="Warstwa 2"><g id="OBJECTS"><circle class="cls-2" cx="199.09" cy="181.5" r="181.5" transform="translate(-70.03 193.93) rotate(-45)"/><rect class="cls-3" x="267.29" y="26.61" width="54.11" height="7.17" rx="3.26" ry="3.26"/><rect class="cls-3" x="267.29" y="41" width="54.11" height="7.17" rx="3.26" ry="3.26"/><rect class="cls-3" x="301.09" y="54.49" width="54.11" height="7.17" rx="3.26" ry="3.26"/><rect class="cls-3" x="301.09" y="68.89" width="54.11" height="7.17" rx="3.26" ry="3.26"/><rect class="cls-3" x="28.72" y="65.99" width="45.38" height="6.01" rx="2.73" ry="2.73"/><rect class="cls-3" x="28.72" y="78.07" width="45.38" height="6.01" rx="2.73" ry="2.73"/><rect class="cls-3" x="57.06" y="89.38" width="45.38" height="6.01" rx="2.73" ry="2.73"/><rect class="cls-3" x="57.06" y="101.45" width="45.38" height="6.01" rx="2.73" ry="2.73"/><rect class="cls-3" x="300.79" y="234.62" width="45.38" height="6.01" rx="2.73" ry="2.73"/><rect class="cls-3" x="300.79" y="246.69" width="45.38" height="6.01" rx="2.73" ry="2.73"/><rect class="cls-3" x="329.13" y="258" width="45.38" height="6.01" rx="2.73" ry="2.73"/><rect class="cls-3" x="329.13" y="270.08" width="45.38" height="6.01" rx="2.73" ry="2.73"/><g class="cls-4"><path class="cls-5" d="M104.66,63.54A11.79,11.79,0,0,1,95,59.07a17.64,17.64,0,0,1-2.91-14.36c.88-3.77,2.94-6.61,5.8-8h0c12.72-6.13,18.79,2.87,20.8,7,3.6,7.4-2.9,15.75-6,17.67A16.38,16.38,0,0,1,104.66,63.54Zm-5.37-24c-2,1-3.45,3.05-4.1,5.88A14.54,14.54,0,0,0,97.5,57.13a8.66,8.66,0,0,0,7.17,3.29h.09a13.11,13.11,0,0,0,6.33-1.67,14.19,14.19,0,0,0,4.34-5.48c1-2.11,1.9-5.25.48-8.16-2.44-5-7.3-10.06-16.62-5.57Z"/><path class="cls-5" d="M109.41,60.08s1.38,5.17,2.87,5.76c1.67.65,7-3.4,6.33-4.84s-4.17-4.88-4.17-4.88Z"/><path class="cls-5" d="M112,60.18a1.58,1.58,0,0,1-1.33-.73l-6.29-9.88a1.57,1.57,0,0,1,2.65-1.68l6.29,9.88A1.57,1.57,0,0,1,112,60.18Z"/><path class="cls-5" d="M108.45,45.51a4.33,4.33,0,1,1-6.13,0A4.34,4.34,0,0,1,108.45,45.51Z"/><path class="cls-5" d="M247.28,91a10.5,10.5,0,0,1-2.66-.35A12.57,12.57,0,0,1,236,81.53a14.56,14.56,0,0,1,2.33-11.9,14,14,0,0,1,10.5-5.88A8.88,8.88,0,0,1,258,70.44a7.26,7.26,0,0,1-3.91,8.81,3.89,3.89,0,0,1-1.84.4,4.68,4.68,0,0,1-7.71,3.13c-2-1.89-2-5.43-1-8a6.17,6.17,0,0,1,5.59-4.27h0a1.74,1.74,0,0,1,1.74,1.72,2.43,2.43,0,0,1,0,.38,1.77,1.77,0,0,1,.71.79c.21.47.39.94.56,1.37a12,12,0,0,0,.52,1.23,3.87,3.87,0,0,0,2-4.7,5.37,5.37,0,0,0-5.52-4.12,10.43,10.43,0,0,0-7.93,4.42,11.14,11.14,0,0,0-1.8,9,9,9,0,0,0,6.14,6.58c2.79.74,5.62-.28,8.18-2.93a1.75,1.75,0,0,1,2.47,0,1.73,1.73,0,0,1,0,2.46A12.44,12.44,0,0,1,247.28,91Zm1-16.69a3.46,3.46,0,0,0-1.45,1.83c-.66,1.66-.46,3.56.16,4.16.24.24.7.21,1.34-.07.8-.35.68-3.34,0-5.54A1.59,1.59,0,0,1,248.25,74.28Z"/><path class="cls-5" d="M327.66,144.74a6.34,6.34,0,0,1-.68-.19c-3.79-1.22-7-5.61-5.86-11.63.92-4.74,3.45-8.52,6.78-10.1a7.54,7.54,0,0,1,7,.16,1.71,1.71,0,1,1-1.61,3,4.1,4.1,0,0,0-3.88-.08c-2.32,1.1-4.19,4-4.89,7.66-.79,4.07,1.19,7,3.55,7.73,2,.64,3.84-.32,4.9-2.6a1.71,1.71,0,0,1,3.1,1.44C334.64,143.14,331.55,145.63,327.66,144.74Z"/><path class="cls-5" d="M344.69,121.85l-.94.26-.37.11c-.15-.45-.29-.89-.44-1.33a1.07,1.07,0,0,0-2,.64c.15.42.27.84.39,1.26l-1.72.48c-1.51.42-1.12,3,.49,2.76l1.87-.27c.12.4.25.79.41,1.19a1.14,1.14,0,0,0,1.72.44.59.59,0,0,0,.31-.29,2.35,2.35,0,0,0,.06-1.69l.87-.13C347.8,124.92,347.16,121.2,344.69,121.85Z"/><path class="cls-5" d="M355,119.89l-.94.26-.38.11c-.15-.45-.29-.89-.43-1.33a1.07,1.07,0,0,0-2,.64c.14.42.26.84.38,1.26l-1.71.48c-1.52.42-1.13,3,.48,2.76l1.87-.26c.12.39.25.78.41,1.18a1.14,1.14,0,0,0,1.72.44.59.59,0,0,0,.31-.29,2.35,2.35,0,0,0,.06-1.69l.87-.13C358.11,123,357.47,119.24,355,119.89Z"/><path class="cls-5" d="M287.72,282.66a1.64,1.64,0,0,1-.7-.17,1.53,1.53,0,0,1-.65-2.06l10-19.36a1.53,1.53,0,1,1,2.72,1.4l-10,19.36A1.52,1.52,0,0,1,287.72,282.66Z"/><path class="cls-5" d="M282.38,278.65a1.52,1.52,0,0,1-1.35-.82L275.35,267a1.53,1.53,0,0,1,.58-2l10.68-6.34a1.53,1.53,0,0,1,1.56,2.63l-9.43,5.6,5,9.56a1.54,1.54,0,0,1-.65,2.07A1.49,1.49,0,0,1,282.38,278.65Z"/><path class="cls-5" d="M296.24,284a1.53,1.53,0,0,1-.59-2.94l11-4.61-4-11.32a1.53,1.53,0,1,1,2.88-1L310,276.78a1.54,1.54,0,0,1-.85,1.92l-12.35,5.17A1.42,1.42,0,0,1,296.24,284Z"/><path class="cls-5" d="M57.57,228.79A23.44,23.44,0,0,0,54,224l-3.25,2.91a10.83,10.83,0,0,0-6-1.61,22.72,22.72,0,0,0-.57-4.26,10.49,10.49,0,0,0-6.92,2.51,11.26,11.26,0,0,0,1.81,2.94c.11.14.23.28.35.41l-.25.15c-3,2-4.54,4.09-5.16,6.13-.92-.16-1.84-.33-2.76-.47a1.3,1.3,0,0,0-.65,0,.94.94,0,0,0-.45.45,3.25,3.25,0,0,0,0,2.2c.22,1,.45,2.06.68,3.09.12.55.32,1.19.86,1.34a1.6,1.6,0,0,0,1.16-.28c.45-.23.9-.44,1.36-.65a18.92,18.92,0,0,0,.71,1.9,11.77,11.77,0,0,0,3.9,4.75l-2.33,1.93,1.66.87c1.84.95,3.77,1.93,5.84,1.89a18.61,18.61,0,0,0,.82-3.12,11.34,11.34,0,0,0,3.39-1A9.28,9.28,0,0,0,52,242.87a10.71,10.71,0,0,1,2,1.52.35.35,0,0,0,.28.13c.08,0,.14-.1.18-.17l1.34-2.22a12.41,12.41,0,0,0,1.49-3.61c-1.1-.29-2.12-.66-3.22-1a17.31,17.31,0,0,0-.17-6.26,17.45,17.45,0,0,0,3.61-2,.37.37,0,0,0,.13-.15A.33.33,0,0,0,57.57,228.79ZM45.83,240.52A4.26,4.26,0,0,1,40,238.17c-.66-1.5-1.31-3.95,1.88-6,2.61-1.69,5.54-.28,6.2,1.13S48.94,239.11,45.83,240.52Z"/><path class="cls-5" d="M76,236.63a12.09,12.09,0,0,0-1.84-2.48l-1.67,1.49a5.59,5.59,0,0,0-3.06-.82,11.65,11.65,0,0,0-.3-2.2,5.46,5.46,0,0,0-3.56,1.3,6,6,0,0,0,.93,1.51l.18.21-.12.08a5.9,5.9,0,0,0-2.66,3.15c-.47-.08-.94-.17-1.42-.24a.62.62,0,0,0-.33,0,.51.51,0,0,0-.24.24,1.75,1.75,0,0,0,0,1.13l.35,1.59c.06.28.16.61.44.69a.84.84,0,0,0,.6-.15c.23-.12.46-.23.7-.33a9,9,0,0,0,.37,1,5.89,5.89,0,0,0,2,2.44l-1.2,1,.86.44a6.46,6.46,0,0,0,3,1,8.86,8.86,0,0,0,.42-1.61,5.73,5.73,0,0,0,1.75-.49,4.72,4.72,0,0,0,2-1.66,6,6,0,0,1,1,.79s.09.07.14.06.07-.05.1-.09c.22-.38.45-.76.68-1.14a6.15,6.15,0,0,0,.77-1.85c-.57-.15-1.09-.34-1.66-.53a8.94,8.94,0,0,0-.08-3.22,8.87,8.87,0,0,0,1.85-1,.16.16,0,0,0,.07-.07C76.09,236.73,76.06,236.68,76,236.63Zm-6,6a2.19,2.19,0,0,1-3-1.21,2.22,2.22,0,0,1,1-3.09,2.29,2.29,0,0,1,3.19.57C71.5,239.67,71.6,241.94,70,242.67Z"/><path class="cls-5" d="M361.9,185.43a23.12,23.12,0,0,0-3.58-4.82l-3.25,2.9a10.83,10.83,0,0,0-5.95-1.61,22.72,22.72,0,0,0-.57-4.26,10.54,10.54,0,0,0-6.92,2.51,11.55,11.55,0,0,0,1.8,2.95l.36.41-.25.15c-3,2-4.54,4.08-5.16,6.12-.92-.16-1.84-.33-2.76-.47a1.3,1.3,0,0,0-.65,0,.86.86,0,0,0-.45.45,3.25,3.25,0,0,0,0,2.2c.22,1,.45,2.05.68,3.08.12.55.32,1.19.86,1.35a1.64,1.64,0,0,0,1.16-.28c.45-.24.9-.45,1.36-.66a18,18,0,0,0,.71,1.9,11.77,11.77,0,0,0,3.9,4.75l-2.33,1.93,1.66.87c1.84,1,3.77,1.93,5.84,1.9a19,19,0,0,0,.82-3.13,10.78,10.78,0,0,0,3.39-1,9.13,9.13,0,0,0,3.82-3.22,11.17,11.17,0,0,1,2,1.52c.08.08.17.16.27.14a.31.31,0,0,0,.19-.18l1.34-2.22a12.35,12.35,0,0,0,1.49-3.6c-1.1-.29-2.12-.67-3.22-1a17.38,17.38,0,0,0-.17-6.27,17.24,17.24,0,0,0,3.61-2,.35.35,0,0,0,.13-.14A.34.34,0,0,0,361.9,185.43Zm-11.74,11.73a4.26,4.26,0,0,1-5.82-2.34c-.66-1.51-1.31-3.95,1.88-6,2.61-1.69,5.54-.28,6.2,1.13S353.27,195.75,350.16,197.16Z"/><path class="cls-5" d="M380.37,193.27a12.76,12.76,0,0,0-1.84-2.48l-1.68,1.5a5.54,5.54,0,0,0-3.05-.83,11.54,11.54,0,0,0-.3-2.19,5.4,5.4,0,0,0-3.56,1.29,5.85,5.85,0,0,0,.93,1.51l.18.21-.12.08a5.85,5.85,0,0,0-2.66,3.15l-1.42-.24a.61.61,0,0,0-.33,0,.45.45,0,0,0-.24.23,1.68,1.68,0,0,0,0,1.13l.35,1.59c.06.28.16.61.44.69a.88.88,0,0,0,.6-.14l.7-.34a9,9,0,0,0,.36,1,6,6,0,0,0,2,2.45l-1.2,1,.86.45a6.41,6.41,0,0,0,3,1,8.86,8.86,0,0,0,.42-1.61,5.34,5.34,0,0,0,1.74-.49,4.74,4.74,0,0,0,2-1.65,5.8,5.8,0,0,1,1,.78s.08.08.14.07a.21.21,0,0,0,.1-.09c.22-.38.45-.76.68-1.14a6.31,6.31,0,0,0,.77-1.86c-.57-.15-1.09-.34-1.66-.53a8.94,8.94,0,0,0-.08-3.22,8.87,8.87,0,0,0,1.85-1,.16.16,0,0,0,.07-.07S380.39,193.32,380.37,193.27Zm-6,6a2.2,2.2,0,0,1-3-1.21,2.23,2.23,0,0,1,1-3.09,2.29,2.29,0,0,1,3.19.58C375.83,196.31,375.93,198.58,374.33,199.31Z"/><path class="cls-5" d="M30,174.31l-.56,0c-3.14-.28-6.41-3.1-6.57-8-.13-3.82,1.16-7.18,3.45-9a6,6,0,0,1,5.41-1.11,1.35,1.35,0,1,1-.72,2.61,3.25,3.25,0,0,0-3,.62c-1.59,1.26-2.52,3.86-2.43,6.78.11,3.28,2.15,5.18,4.11,5.35,1.67.14,2.91-.93,3.32-2.87a1.35,1.35,0,0,1,2.65.56C35.08,171.85,33.14,174.31,30,174.31Z"/><path class="cls-5" d="M39.44,156.72A2,2,0,0,0,37,159.08a2.15,2.15,0,0,0,3,1.35,1.66,1.66,0,0,0,.49-.42,1.58,1.58,0,0,0,.57-.77A2.09,2.09,0,0,0,39.44,156.72Z"/><polygon class="cls-5" points="40.91 165.43 40.91 165.42 40.91 165.42 40.91 165.43"/><path class="cls-5" d="M42.86,165.48a1.37,1.37,0,0,0-.33-.56,1.85,1.85,0,0,0-1.46-1.08,1.81,1.81,0,0,0-1.84.85,2.07,2.07,0,0,0-.12,1.89,2,2,0,0,0,2.14,1.18A1.94,1.94,0,0,0,42.86,165.48Z"/><path class="cls-5" d="M48.34,169.76A1.36,1.36,0,0,1,47,168.53L45.27,149.8a1.35,1.35,0,1,1,2.69-.24l1.73,18.73a1.35,1.35,0,0,1-1.22,1.47Z"/></g><path class="cls-6" d="M43.46,272.25a2.53,2.53,0,0,1-2.53-2.5,2.48,2.48,0,0,1,2.48-2.5h.05a2.5,2.5,0,0,1,0,5Z"/><path class="cls-6" d="M102.44,272.25a2.54,2.54,0,0,1-2.55-2.5,2.46,2.46,0,0,1,2.45-2.5h.1a2.5,2.5,0,0,1,0,5Zm-9.83,0a2.54,2.54,0,0,1-2.55-2.5,2.46,2.46,0,0,1,2.45-2.5h.1a2.5,2.5,0,1,1,0,5Zm-9.83,0a2.54,2.54,0,0,1-2.55-2.5,2.46,2.46,0,0,1,2.45-2.5h.1a2.5,2.5,0,0,1,0,5Zm-9.83,0a2.54,2.54,0,0,1-2.55-2.5,2.46,2.46,0,0,1,2.45-2.5H73a2.5,2.5,0,0,1,0,5Zm-9.83,0a2.54,2.54,0,0,1-2.55-2.5,2.46,2.46,0,0,1,2.45-2.5h.1a2.5,2.5,0,1,1,0,5Zm-9.83,0a2.54,2.54,0,0,1-2.55-2.5,2.46,2.46,0,0,1,2.45-2.5h.1a2.5,2.5,0,1,1,0,5Z"/><path class="cls-6" d="M112.22,272.25a2.52,2.52,0,0,1-2.52-2.5,2.48,2.48,0,0,1,2.47-2.5h0a2.5,2.5,0,1,1,0,5Z"/><path class="cls-6" d="M332,104a2.53,2.53,0,0,1-2.53-2.5,2.48,2.48,0,0,1,2.48-2.5H332a2.5,2.5,0,0,1,0,5Z"/><path class="cls-6" d="M391,104a2.54,2.54,0,0,1-2.55-2.5,2.46,2.46,0,0,1,2.45-2.5h.1a2.5,2.5,0,0,1,0,5Zm-9.83,0a2.54,2.54,0,0,1-2.55-2.5A2.46,2.46,0,0,1,381,99h.1a2.5,2.5,0,0,1,0,5Zm-9.83,0a2.54,2.54,0,0,1-2.55-2.5,2.46,2.46,0,0,1,2.45-2.5h.1a2.5,2.5,0,0,1,0,5Zm-9.83,0a2.54,2.54,0,0,1-2.55-2.5,2.46,2.46,0,0,1,2.45-2.5h.1a2.5,2.5,0,0,1,0,5Zm-9.83,0a2.54,2.54,0,0,1-2.55-2.5,2.46,2.46,0,0,1,2.45-2.5h.1a2.5,2.5,0,0,1,0,5Zm-9.83,0a2.54,2.54,0,0,1-2.55-2.5A2.46,2.46,0,0,1,341.7,99h.1a2.5,2.5,0,0,1,0,5Z"/><path class="cls-6" d="M400.73,104a2.52,2.52,0,0,1-2.52-2.5,2.48,2.48,0,0,1,2.47-2.5h.05a2.5,2.5,0,0,1,0,5Z"/><path class="cls-6" d="M2.52,121A2.52,2.52,0,0,1,0,118.45,2.48,2.48,0,0,1,2.48,116h0a2.5,2.5,0,0,1,0,5Z"/><path class="cls-6" d="M61.51,121a2.54,2.54,0,0,1-2.55-2.5,2.46,2.46,0,0,1,2.45-2.5h.1a2.5,2.5,0,1,1,0,5Zm-9.83,0a2.54,2.54,0,0,1-2.55-2.5,2.46,2.46,0,0,1,2.45-2.5h.1a2.5,2.5,0,0,1,0,5Zm-9.83,0a2.54,2.54,0,0,1-2.55-2.5,2.46,2.46,0,0,1,2.45-2.5h.1a2.5,2.5,0,1,1,0,5ZM32,121a2.54,2.54,0,0,1-2.55-2.5,2.46,2.46,0,0,1,2.45-2.5H32a2.5,2.5,0,0,1,0,5Zm-9.83,0a2.54,2.54,0,0,1-2.55-2.5,2.46,2.46,0,0,1,2.45-2.5h.1a2.5,2.5,0,1,1,0,5Zm-9.84,0a2.54,2.54,0,0,1-2.54-2.5,2.46,2.46,0,0,1,2.45-2.5h.09a2.5,2.5,0,1,1,0,5Z"/><path class="cls-6" d="M71.29,121a2.52,2.52,0,0,1-2.52-2.5,2.48,2.48,0,0,1,2.47-2.5h.05a2.5,2.5,0,0,1,0,5Z"/><path class="cls-7" d="M392.87,146.74a5.54,5.54,0,1,1,5.54-5.54A5.54,5.54,0,0,1,392.87,146.74Zm0-8.42a2.88,2.88,0,1,0,2.88,2.88A2.88,2.88,0,0,0,392.87,138.32Z"/><path class="cls-7" d="M269.19,14.22a5.54,5.54,0,1,1,5.54-5.54A5.54,5.54,0,0,1,269.19,14.22Zm0-8.42a2.88,2.88,0,1,0,2.88,2.88A2.88,2.88,0,0,0,269.19,5.8Z"/><path class="cls-7" d="M191.48,32.2A5.54,5.54,0,1,1,197,26.66,5.55,5.55,0,0,1,191.48,32.2Zm0-8.42a2.88,2.88,0,1,0,2.88,2.88A2.88,2.88,0,0,0,191.48,23.78Z"/><path class="cls-7" d="M78.32,49.1a5.54,5.54,0,1,1,5.53-5.53A5.54,5.54,0,0,1,78.32,49.1Zm0-8.41a2.88,2.88,0,1,0,2.87,2.88A2.88,2.88,0,0,0,78.32,40.69Z"/><path class="cls-7" d="M20.22,248.56A5.54,5.54,0,1,1,25.76,243,5.55,5.55,0,0,1,20.22,248.56Zm0-8.42A2.88,2.88,0,1,0,23.1,243,2.88,2.88,0,0,0,20.22,240.14Z"/><path class="cls-7" d="M94.07,306.76a5.54,5.54,0,1,1,5.54-5.54A5.55,5.55,0,0,1,94.07,306.76Zm0-8.42A2.88,2.88,0,1,0,97,301.22,2.88,2.88,0,0,0,94.07,298.34Z"/><path class="cls-7" d="M379.83,228.8a5.54,5.54,0,1,1,5.54-5.54A5.55,5.55,0,0,1,379.83,228.8Zm0-8.42a2.88,2.88,0,1,0,2.88,2.88A2.89,2.89,0,0,0,379.83,220.38Z"/><path class="cls-7" d="M139.62,182.67a5.54,5.54,0,1,1,5.54-5.54A5.54,5.54,0,0,1,139.62,182.67Zm0-8.42a2.88,2.88,0,1,0,2.88,2.88A2.88,2.88,0,0,0,139.62,174.25Z"/><path class="cls-7" d="M69.9,140.35a5.54,5.54,0,1,1,5.53-5.54A5.55,5.55,0,0,1,69.9,140.35Zm0-8.42a2.88,2.88,0,1,0,2.87,2.88A2.88,2.88,0,0,0,69.9,131.93Z"/><path class="cls-7" d="M136.34,17.86h-2v-2a1.33,1.33,0,0,0-2.66,0v2h-2a1.33,1.33,0,1,0,0,2.66h2v2a1.33,1.33,0,1,0,2.66,0v-2h2a1.33,1.33,0,0,0,0-2.66Z"/><path class="cls-7" d="M12.83,175.08h-2v-2a1.33,1.33,0,0,0-2.66,0v2h-2a1.33,1.33,0,0,0,0,2.66h2v2a1.33,1.33,0,1,0,2.66,0v-2h2a1.33,1.33,0,1,0,0-2.66Z"/><path class="cls-7" d="M330.28,300.16h-2v-2a1.33,1.33,0,0,0-2.66,0v2h-2a1.33,1.33,0,1,0,0,2.66h2v2a1.33,1.33,0,0,0,2.66,0v-2h2a1.33,1.33,0,1,0,0-2.66Z"/><path class="cls-7" d="M275.82,184.51h-2v-2a1.33,1.33,0,1,0-2.66,0v2h-2a1.33,1.33,0,0,0,0,2.66h2v2a1.33,1.33,0,0,0,2.66,0v-2h2a1.33,1.33,0,0,0,0-2.66Z"/><path class="cls-7" d="M75.27,190.42h-2v-2a1.33,1.33,0,0,0-2.66,0v2h-2a1.33,1.33,0,1,0,0,2.66h2v2a1.33,1.33,0,1,0,2.66,0v-2h2a1.33,1.33,0,0,0,0-2.66Z"/><path class="cls-7" d="M25.53,78.28h-2v-2a1.33,1.33,0,0,0-2.66,0v2h-2a1.33,1.33,0,0,0,0,2.66h2v2a1.33,1.33,0,0,0,2.66,0v-2h2a1.33,1.33,0,0,0,0-2.66Z"/><path class="cls-7" d="M238.69,42.07h-2v-2a1.33,1.33,0,1,0-2.66,0v2h-2a1.33,1.33,0,1,0,0,2.66h2v2a1.33,1.33,0,0,0,2.66,0v-2h2a1.33,1.33,0,1,0,0-2.66Z"/><path class="cls-7" d="M300.65,91.47h-2v-2a1.33,1.33,0,0,0-2.66,0v2h-2a1.33,1.33,0,1,0,0,2.66h2v2a1.33,1.33,0,0,0,2.66,0v-2h2a1.33,1.33,0,0,0,0-2.66Z"/><path class="cls-7" d="M384.48,44.85h-2v-2a1.33,1.33,0,0,0-2.66,0v2h-2a1.33,1.33,0,1,0,0,2.66h2v2a1.33,1.33,0,1,0,2.66,0v-2h2a1.33,1.33,0,0,0,0-2.66Z"/><path class="cls-8" d="M169.39,204c-44.06,37-69-13.22-59.06-39.2,0,0,12.85,7.38,13.44-1.3S115.69,161,112,157.69s-2.31-7.76,1.1-8.88,5,0,5.65,4.29c.63,3.86,6.66,4.33,8,1.07s.49-13.95-15.08-14.39c-.44-2.23,4.51-20.72-4-20.61-6.77.09-4.11,14.89-4,19-2.37-7-2.67-18.64-9.79-15.08S98,142.39,98,142.39s-7.63-12.93-12.22-6.93c-3.3,4.32.88,8.25,6.85,12.59,4.62,3.35,1.88,13.12,1.19,16.75-2.22,11.67-9,57.64,26.84,72.32,18.69,7.66,38.08,1.33,38.08,1.33Z"/><path class="cls-9" d="M169.39,204l-10.66,34.46s-19.39,6.32-38.07-1.34C91.1,225,90.53,191.59,92.49,173.72c-.29,18.35,4.23,43.18,28.82,53.25,18.68,7.66,38.08,1.34,38.08,1.34l6.7-21.67C167.17,205.82,168.28,204.94,169.39,204Z"/><path class="cls-8" d="M233.84,204c44.06,37,69-13.22,59.07-39.2,0,0-12.86,7.38-13.45-1.3s8.09-2.53,11.79-5.81,2.31-7.76-1.1-8.88-4.95,0-5.65,4.29c-.63,3.86-6.66,4.33-8,1.07s-.49-13.95,15.08-14.39c.45-2.23-4.51-20.72,4-20.61,6.76.09,4.11,14.89,4,19,2.37-7,2.68-18.64,9.8-15.08s-4.08,19.26-4.08,19.26,7.63-12.93,12.22-6.93c3.3,4.32-.88,8.25-6.85,12.59-4.62,3.35-1.88,13.12-1.19,16.75,2.23,11.67,9,57.64-26.84,72.32-18.68,7.66-38.07,1.33-38.07,1.33Z"/><path class="cls-9" d="M233.88,204l10.66,34.46s19.39,6.32,38.07-1.34c29.56-12.11,30.13-45.53,28.17-63.4.29,18.35-4.23,43.18-28.82,53.25-18.68,7.66-38.08,1.34-38.08,1.34l-6.7-21.67C236.1,205.82,235,204.94,233.88,204Z"/><path class="cls-10" d="M255.37,211.74c-5.16-.7-19.3-6.92-24.64-10.17-13.14-10.4-43.76-11.06-57.14-1-1.24.94-20.94,11.68-26.2,11.16-4.27-.43-5.58,35.11,0,36.66,2,.56,4,.95,5.6,1.23-.73,23.29-1.37,59.34,2.78,64,5,5.66,86.56,5.66,91.6,0,4.16-4.67,3.35-40.81,2.57-64,1.6-.27,3.46-.66,5.43-1.2C261,246.85,259.62,212.31,255.37,211.74Z"/><path class="cls-9" d="M211.22,187.4h-19.3c0,11.78-1.08,17.68,9.65,17.68S211.22,199.18,211.22,187.4Z"/><path class="cls-11" d="M307.75,329c-4.58-18.78-35.6-24.33-52.28-24H150.38c-16.68-.31-47.7,5.24-52.28,24-4.53,18.57.79,54,104.82,33.92C307,383,312.28,347.58,307.75,329Z"/><path class="cls-12" d="M307.75,328.65c5.34,19-.9,55.28-108.3,33.54,0,0,3.18-20.49-1.71-34.47C260.18,305.27,303.49,313.5,307.75,328.65Z"/><path class="cls-11" d="M199.44,362.19s.34-2.17.63-5.58c96.42,19.1,109.88-9.23,107.44-28.68q.14.36.24.72C313.09,347.67,306.85,383.93,199.44,362.19Z"/><path class="cls-5" d="M242.25,368.84a59.69,59.69,0,0,1-11-.24c-15.6-1.53-35.37-6.91-35.37-6.91l10.89-28.8s15.06-.64,27.19-.54c6,0,11.33.29,13.72.87C258.15,335.83,258.52,367.26,242.25,368.84Z"/><path class="cls-13" d="M206.54,340.81c.4.05,24.39.8,23.68,1.14s-1.62,15.25-1.62,15.25-24.3-3.41-24-3.79S206.54,340.81,206.54,340.81Z"/><path class="cls-3" d="M242.25,368.84a59.69,59.69,0,0,1-11-.24c-3.29-4.82-5-11.85-4.16-19.45a30.43,30.43,0,0,1,6.87-16.8c6,0,11.33.29,13.72.87C258.15,335.83,258.52,367.26,242.25,368.84Z"/><path class="cls-14" d="M242.25,368.84A47.32,47.32,0,0,1,236,369l1.23-.1c16.28-1.58,15.91-33,5.4-35.62a43.66,43.66,0,0,0-8.67-.88c4.83,0,10.54.09,13.72.87C258.15,335.83,258.52,367.26,242.25,368.84Z"/><path class="cls-14" d="M226.05,360.12a1.5,1.5,0,0,1-1.44-1.09c-1.24-4.39-.51-9.9.41-14-1.79,3.14-3.41,7.82-2.88,12.29a1.51,1.51,0,0,1-1.32,1.67,1.49,1.49,0,0,1-1.66-1.32c-1-8.13,4.41-18.63,8.64-19.35a1.5,1.5,0,0,1,1.66,2c0,.11-3.91,11-2,17.88a1.51,1.51,0,0,1-1,1.86A1.84,1.84,0,0,1,226.05,360.12Z"/><path class="cls-14" d="M214.57,358.37a1.5,1.5,0,0,1-1.49-1.32c-1-8.13,4.42-18.64,8.65-19.35a1.5,1.5,0,1,1,.5,2.95c-1.77.3-7.06,8.47-6.17,16.05a1.49,1.49,0,0,1-1.31,1.66Z"/><path class="cls-14" d="M208.5,357.73a1.5,1.5,0,0,1-1.49-1.32c-1-8.13,4.41-18.64,8.64-19.36a1.5,1.5,0,0,1,.51,3c-1.77.3-7.07,8.46-6.17,16a1.5,1.5,0,0,1-1.31,1.67Z"/><path class="cls-3" d="M226.11,359.6a1.59,1.59,0,0,1-.56-.11c-4-1.59-7-13-4.38-20.74a1.49,1.49,0,0,1,1.9-.93,1.52,1.52,0,0,1,.94,1.91c-2.47,7.22,1,16.31,2.66,17a1.5,1.5,0,0,1,.83,1.95A1.49,1.49,0,0,1,226.11,359.6Z"/><path class="cls-3" d="M220,359a1.54,1.54,0,0,1-.56-.1c-4-1.59-7-13-4.39-20.74a1.5,1.5,0,0,1,2.84,1c-2.46,7.22,1,16.32,2.66,17A1.5,1.5,0,0,1,220,359Z"/><path class="cls-3" d="M214,358.31a1.35,1.35,0,0,1-.55-.11c-4-1.59-7-13-4.39-20.73a1.5,1.5,0,1,1,2.84,1c-2.47,7.22,1,16.31,2.66,17a1.5,1.5,0,0,1-.56,2.89Z"/><path class="cls-15" d="M252.09,317.86c-5.08,4.14-95.39,4.76-101.16,0s-12.27-76.74-8.81-80.2,114-3.14,118.79,0S257.17,313.72,252.09,317.86Z"/><path class="cls-16" d="M256.38,303.51c-1.47,7.74-3,13.29-4.29,14.35-5.08,4.14-95.39,4.76-101.16,0s-12.27-76.74-8.82-80.2c.48-.47,5.61,46.8,20.39,59.59C188.4,319.66,238.15,314.13,256.38,303.51Z"/><circle class="cls-3" cx="201.74" cy="278.19" r="14.8" transform="matrix(0.15, -0.99, 0.99, 0.15, -104.34, 434.41)"/><path class="cls-3" d="M199.83,260.85s-5.7-9.39-8.75-3.27C189.46,260.85,199.83,260.85,199.83,260.85Z"/><path class="cls-3" d="M202.92,260.85s5.7-9.39,8.75-3.27C213.3,260.85,202.92,260.85,202.92,260.85Z"/><path class="cls-17" d="M133.41,312.86c23.23,1.49,61,14.26,75.83,18.14-2.23,3.51-5.62,31.53-4.11,33C96.81,386,93.48,346.35,98.1,328.2,99.55,322.48,108.93,311.28,133.41,312.86Z"/><path class="cls-12" d="M205.12,364C104.47,384.39,94.48,351.65,97.26,332.35c2.89,18.33,23.64,38.47,107.86,21.4Z"/><path class="cls-18" d="M248.91,141a1.6,1.6,0,0,1-.49.23,21.4,21.4,0,0,1-4.38.59l-1.58.08h-.24L241,142l-1,0-1.85,0c-18.37.36-55-1.13-72.33-1.91l-.93,0-2.54-.11-1.19-.06-4.83-.23a18.79,18.79,0,0,1-1.62-2.06c-3.41-4.84-7.35-13.41-5.08-15.18,2.65-2.07,6.62-.51,6.7-1.72s-6.25-10.52-3.69-13.45,2.57-.34,3.69-1.38c.65-.6-1.17-5-1.56-9.38-.06-.6-.08-1.2-.08-1.79,0-2.56.75-5,2.93-6.42a12.9,12.9,0,0,0,2.92-2.49c1.71-2.15-.36-2.82,2.49-4.4,3.73-2.07,8.56,1,8.56,1s6.72-12.58,10.17-13.1,3.1,4.65,6,4,7.24-6.72,10.86-7.93c5.23-1.74-1.48,5.52,1,5.52s8.11-6.9,16.21-8.1c2.76,2.41-1.21,6.38,5.17,7.41s3.45,6.55,7.59,8.45,3.62.52,7.76,1.9,2.63,2.75,3.81,7.24.15,5.34,4.55,7.76,9,4.31,6.7,9.65-2.69,9.14,0,8.1,3.21-1.2,2.52,1.9-5.86,10.35-1.55,10.35S252.83,138,248.91,141Z"/><path class="cls-18" d="M248.91,141a1.6,1.6,0,0,1-.49.23,21.4,21.4,0,0,1-4.38.59l-1.58.08h-.24L241,142l-1,0-1.85,0c-18.37.36-55-1.13-72.33-1.91l-.93,0-2.54-.11-1.19-.06-4.83-.23a18.79,18.79,0,0,1-1.62-2.06c-3.41-4.84-7.35-13.41-5.08-15.18,2.65-2.07,6.62-.51,6.7-1.72s-6.25-10.52-3.69-13.45,2.57-.34,3.69-1.38c.65-.6-1.17-5-1.56-9.38-.06-.6-.08-1.2-.08-1.79,0-2.56.75-5,2.93-6.42a12.9,12.9,0,0,0,2.92-2.49c1.71-2.15-.36-2.82,2.49-4.4,3.73-2.07,8.56,1,8.56,1s6.72-12.58,10.17-13.1,3.1,4.65,6,4,7.24-6.72,10.86-7.93c5.23-1.74-1.48,5.52,1,5.52s8.11-6.9,16.21-8.1c2.76,2.41-1.21,6.38,5.17,7.41s3.45,6.55,7.59,8.45,3.62.52,7.76,1.9,2.63,2.75,3.81,7.24.15,5.34,4.55,7.76,9,4.31,6.7,9.65-2.69,9.14,0,8.1,3.21-1.2,2.52,1.9-5.86,10.35-1.55,10.35S252.83,138,248.91,141Z"/><path class="cls-19" d="M245.67,138.79l0,1a2.38,2.38,0,0,1-1.6,2.11,2.52,2.52,0,0,1-1.58.08l-.09,0a.4.4,0,0,1-.15,0A2.73,2.73,0,0,1,241,142a2.27,2.27,0,0,1-1-.44,2.07,2.07,0,0,1-.7-1,2.44,2.44,0,0,1-.13-.92A38.52,38.52,0,0,0,238,128.52a2.26,2.26,0,0,1,1.83-2.85.61.61,0,0,1,.13,0q-.28-1.23-.66-2.43v0a28,28,0,0,0-1.5-3.9l-.23-.45-.24-.44,0-.05a2.9,2.9,0,0,0-.19-.34,4.86,4.86,0,0,0-.39-.65,18,18,0,0,0-1.77-2.43c-.05-.06-.1-.13-.16-.19-3.31-3.78-7.9-6.16-12.74-8.09-11.61-4.61-25.12-4.27-37.28-1.42a3.19,3.19,0,0,1-2.5,4c-6.18,2.06-10.91,5.33-16,8.94h0l-2,1.43a35.46,35.46,0,0,1-.58,6.45,3.9,3.9,0,0,1-.14.59,31.27,31.27,0,0,1,1.85,6l.08.09a4.87,4.87,0,0,1,.85,1.39,5,5,0,0,1-.63,5h0a6.3,6.3,0,0,1-.87,1l-.08.08a6.41,6.41,0,0,1-1.28,1.63,7.15,7.15,0,0,1-2.23,1.41c-.23.08-.47.16-.71.22a3.11,3.11,0,0,1-.41.11,7.62,7.62,0,0,1-5.28-.74,12.92,12.92,0,0,1-2.86-2.19,6.86,6.86,0,0,1,1.8-2.37,6.57,6.57,0,0,1,.87-.61c-3.41-4.84-7.35-13.41-5.08-15.18,2.65-2.07,6.62-.51,6.7-1.72s-6.25-10.52-3.69-13.45,2.57-.34,3.69-1.38c.65-.6-1.17-5-1.56-9.38l.07,0a15.28,15.28,0,0,1-.15-1.77c0-2.56.75-5,2.93-6.42a12.9,12.9,0,0,0,2.92-2.49.74.74,0,0,1,.55.92c-1.19,3.52-2.59,6.21-1.21,9.94a34,34,0,0,1,2.67-2.7c2-1.82,4.85.78,3.48,2.79a9.9,9.9,0,0,1,2.16.33c1.53-3.49,3.27-6.8,7.12-8.46,1.44-.62,3.4.41,2.85,2.2-.14.44-.3,1-.46,1.5.36-.62.65-1.11.82-1.36a5,5,0,0,1,5.87-1.53c2-1.95,4.1-3.86,6.22-5.68,3.52-3,6.86-5.07,11.57-4.38,3,.43,3.11,4.84.8,6.15-.76.48-1.5,1-2.22,1.52a19.05,19.05,0,0,0-2.23,2.09l0,0c-.18.27-1.7,2.15-2.67,3.24.06.08.14.14.19.22a40,40,0,0,0,7.81-2.77,28.09,28.09,0,0,1,10.51-2.45,4,4,0,0,1,3.79,4.61c3.54.13,7.08.15,10.64,0a2.11,2.11,0,0,1,2,2.62,9.72,9.72,0,0,1-.59,2.19c1-.12,1.93-.2,2.9-.23a1,1,0,0,1,.26,1.92c-2,.67-4,1.15-6,1.73a1.52,1.52,0,0,1-1.75-2.1,16.13,16.13,0,0,1-4.45.85,42.73,42.73,0,0,1,6.5,2.54C241.07,108.29,246,124.7,245.67,138.79Z"/><path class="cls-9" d="M164,162.32a5.49,5.49,0,0,1-.58,0c-12.29-.68-14.81-15-11.47-21.64a6.86,6.86,0,0,1,1.8-2.37,6.57,6.57,0,0,1,.87-.61c2.62-1.58,4.84-.5,6.42,1a11.76,11.76,0,0,1,1.22,1.37,12.6,12.6,0,0,1,1.18,1.82l.15.27Z"/><path class="cls-20" d="M158.3,149.52a5.36,5.36,0,0,1,.15-.78,15.1,15.1,0,0,1,2.29-4.68.4.4,0,0,0-.54-.56c-3,1.84-5.71,5.78-4.43,9.46,1,2.83,5.61,4.7,7.11,1.29C164.06,151.56,161.23,147.7,158.3,149.52Z"/><path class="cls-9" d="M237.4,163.68h-.08l-.52,0V163l.4-19.51a12.64,12.64,0,0,1,.85-1.43,11.89,11.89,0,0,1,1.93-2.23c1.74-1.54,4.2-2.49,7.06-.17a6.27,6.27,0,0,1,1.37,1.59C252.37,147.53,250.18,163,237.4,163.68Z"/><path class="cls-20" d="M242.51,150.92c0-.26-.09-.53-.15-.78a15.4,15.4,0,0,0-2.3-4.69.4.4,0,0,1,.54-.55c3.05,1.84,5.71,5.78,4.44,9.46-1,2.83-5.62,4.7-7.11,1.28C236.75,153,239.58,149.1,242.51,150.92Z"/><path class="cls-8" d="M240.14,129.41c0,3.65,0,7.13-.15,10.44,0,.74-.05,1.47-.08,2.19q-.18,4.71-.58,9c-.19,2-.41,3.89-.69,5.72-.35,2.43-.78,4.73-1.31,6.9a.25.25,0,0,1,0,.08c-1.53,6.29-3.83,11.44-7.22,15.44-5.93,7-15.2,10.52-29.57,10.52-14.58,0-23.92-3.61-29.84-10.84A35.33,35.33,0,0,1,164.36,166c-.34-1.2-.66-2.44-.94-3.73q-.73-3.33-1.21-7c-.24-1.77-.43-3.62-.59-5.53q-.39-4.61-.55-9.75c0-.43,0-.87,0-1.31-.09-3-.12-6-.12-9.24C160.92,92.69,240.14,92.69,240.14,129.41Z"/><path class="cls-9" d="M231.26,177.67c-.37.5-.76,1-1.16,1.46-5.93,7-15.2,10.52-29.57,10.52-14.58,0-23.92-3.61-29.84-10.84A35.33,35.33,0,0,1,164.36,166c-.34-1.2-.66-2.44-.94-3.73q-.73-3.33-1.21-7c-.24-1.77-.43-3.62-.59-5.53q-.39-4.61-.55-9.75c0-.43,0-.87,0-1.31-.09-3-.12-6-.12-9.24a22.78,22.78,0,0,1,8.7-18,22.22,22.22,0,0,0-4.26,13.31c0,3.21,0,6.29.12,9.24,0,.44,0,.88,0,1.31q.17,5.15.55,9.75c.16,1.91.35,3.76.59,5.53q.48,3.72,1.21,7.05c.28,1.29.6,2.53.94,3.73a35.33,35.33,0,0,0,6.33,12.79C181.05,181.34,190.39,185,205,185,216.92,185,225.35,182.52,231.26,177.67Z"/><path class="cls-18" d="M181.24,156.93c-4.52,0-9.1-3.56-9.1-10.36a1.5,1.5,0,0,1,3,0c0,5.06,3.16,7.36,6.1,7.36s6.1-2.3,6.1-7.36a1.5,1.5,0,0,1,3,0C190.34,153.37,185.76,156.93,181.24,156.93Z"/><path class="cls-18" d="M221.38,156.93c-4.53,0-9.1-3.56-9.1-10.36a1.5,1.5,0,0,1,3,0c0,5.06,3.16,7.36,6.1,7.36s6.1-2.3,6.1-7.36a1.5,1.5,0,0,1,3,0C230.48,153.37,225.9,156.93,221.38,156.93Z"/><path class="cls-18" d="M185.23,126.91a1.51,1.51,0,0,1-1.27-.7c-1-1.58-2-2.45-2.72-2.45s-1.72.87-2.72,2.45a1.5,1.5,0,1,1-2.53-1.6c1.63-2.59,3.35-3.85,5.25-3.85s3.62,1.26,5.26,3.85a1.5,1.5,0,0,1-.47,2.07A1.48,1.48,0,0,1,185.23,126.91Z"/><path class="cls-18" d="M225.37,126.91a1.49,1.49,0,0,1-1.27-.7c-1-1.58-2-2.45-2.72-2.45s-1.72.87-2.72,2.45a1.5,1.5,0,0,1-2.54-1.6c1.64-2.59,3.36-3.85,5.26-3.85s3.61,1.26,5.25,3.85a1.49,1.49,0,0,1-1.26,2.3Z"/><rect class="cls-18" x="199.41" y="167.13" width="5.19" height="9.09" rx="2.36" ry="2.36"/><g class="cls-21"><path class="cls-22" d="M182.65,169.62a9.51,9.51,0,0,1-12,9.19A35.33,35.33,0,0,1,164.36,166a9.5,9.5,0,0,1,18.29,3.6Z"/><path class="cls-22" d="M237.4,163.68h-.08c-1.53,6.29-3.83,11.44-7.22,15.44H230A9.51,9.51,0,1,1,236.81,163a5.78,5.78,0,0,1,.52.59A.23.23,0,0,1,237.4,163.68Z"/></g></g></g></g></svg>