<svg xmlns="http://www.w3.org/2000/svg" viewBox="0 0 400.83 104.99"><defs><style>.cls-1{fill:#d40000;}.cls-2{fill:#fff;}</style></defs><title>zabbix</title><g id="Warstwa_2" data-name="Warstwa 2"><g id="Warstwa_1-2" data-name="Warstwa 1"><path class="cls-1" d="M0,0H400.83V105H0V0Z"/><path class="cls-2" d="M17.14,16h58v7.53L28.45,80.68H76.24V89H16V81.46L62.65,24.31H17.14V16Z"/><path class="cls-2" d="M115.44,25.73,101.89,62.05H129L115.44,25.73ZM109.8,16h11.32l28.12,73H138.86l-6.71-18.73H98.88L92.16,89H81.63L109.8,16Z"/><path class="cls-2" d="M169.94,54.13V80.87h16q8.06,0,11.94-3.3t3.88-10.09q0-6.84-3.88-10.1T186,54.13Zm0-30v22h14.78q7.31,0,10.9-2.71c2.38-1.81,3.58-4.57,3.58-8.29s-1.2-6.44-3.58-8.26-6-2.74-10.9-2.74ZM160,16h25.5q11.41,0,17.59,4.69T209.23,34q0,6.69-3.16,10.65t-9.29,5a19.45,19.45,0,0,1,11.44,6.52,18.87,18.87,0,0,1,4.08,12.39q0,9.78-6.73,15.11T186.45,89H160V16Z"/><path class="cls-2" d="M238.28,54.13V80.87h16q8.06,0,11.94-3.3t3.88-10.09q0-6.84-3.88-10.1t-11.94-3.25Zm0-30v22h14.77q7.32,0,10.9-2.71t3.58-8.29c0-3.68-1.19-6.44-3.58-8.26s-6-2.74-10.9-2.74ZM228.3,16h25.5q11.42,0,17.59,4.69T277.57,34q0,6.69-3.16,10.65t-9.3,5a19.42,19.42,0,0,1,11.44,6.52,18.87,18.87,0,0,1,4.08,12.39q0,9.78-6.72,15.11T254.78,89H228.3V16Z"/><path class="cls-2" d="M325.54,16h11l17.35,26.21L371.39,16H382L359.15,50.19,384.83,89h-11L353.64,58.44,333.23,89H322.62l25.73-38.52Z"/><path class="cls-2" d="M296.63,16h10V89h-10V16Z"/></g></g></svg>