<svg width="838" height="495" viewBox="0 0 838 495" fill="none" xmlns="http://www.w3.org/2000/svg">
<path d="M782.901 178.727V109.978C782.901 36.6594 746.178 0 672.731 0H607.479V54.9938H672.731C709.445 54.9938 727.805 73.3219 727.811 109.978V178.727C727.811 219.053 746.175 241.966 782.901 247.467C746.175 252.974 727.811 275.891 727.811 316.216V384.956C727.811 421.619 709.451 439.95 672.731 439.95L498.023 439.744L457.633 399.424L563.013 294.163C579.765 279.334 591.602 259.769 596.949 238.065C602.297 216.361 600.903 193.547 592.952 172.653C585.001 151.759 570.87 133.774 552.436 121.089C534.002 108.404 512.137 101.618 489.748 101.633C463.936 101.633 441.844 114.423 426.355 124.765C420.071 128.956 418.991 129.06 411.617 124.765C395.527 115.388 374.045 101.652 348.243 101.652C325.857 101.638 303.997 108.423 285.567 121.107C267.136 133.79 253.007 151.771 245.056 172.66C237.106 193.55 235.71 216.36 241.055 238.061C246.399 259.761 258.231 279.325 274.978 294.153L341.189 360.249L379.794 321.72L312.973 255.043L311.62 253.778C303.046 246.338 296.954 236.461 294.16 225.468C291.367 214.476 292.006 202.894 295.991 192.274C299.976 181.654 307.117 172.503 316.458 166.049C325.798 159.594 336.892 156.143 348.252 156.158C358.585 156.158 372.12 164.494 383.006 171.16C395.414 178.793 406.132 185.385 419.028 185.385C431.925 185.385 442.642 178.821 455.05 171.151C465.918 164.466 479.472 156.148 489.804 156.148C501.162 156.138 512.252 159.592 521.589 166.048C530.926 172.504 538.065 181.653 542.049 192.271C546.034 202.888 546.673 214.468 543.883 225.458C541.093 236.449 535.006 246.327 526.436 253.768L339.771 439.95H165.316C128.589 439.95 110.226 421.619 110.226 384.956V316.216C110.226 275.891 91.8629 252.974 55.1365 247.467C91.8629 241.973 110.226 219.059 110.226 178.727V109.978C110.226 73.3156 128.589 54.9875 165.316 54.9938H230.559V0H165.316C91.8316 0 55.0896 36.6594 55.0896 109.978V178.727C55.0896 206.232 36.7264 219.984 0 219.984V274.978C36.7264 274.978 55.0896 288.73 55.0896 316.235V384.975C55.0896 458.294 91.8159 494.956 165.269 494.963L361.994 494.85L418.991 437.953L476.147 495H528.193H672.731C746.172 495 782.895 458.337 782.901 385.013V316.216C782.901 288.712 801.267 274.959 838 274.959V219.975C801.274 219.975 782.907 206.226 782.901 178.727Z" fill="#D73A31"/>
</svg>
