<svg width="500" height="500" viewBox="0 0 500 500" fill="none" xmlns="http://www.w3.org/2000/svg">
<rect width="500" height="500" rx="100" fill="#D73A31"/>
<path d="M445.412 213.043V176.099C445.412 136.7 425.692 117 386.252 117H351.212V146.552H386.252C405.967 146.552 415.826 156.401 415.83 176.099V213.043C415.83 234.713 425.69 247.026 445.412 249.982C425.69 252.942 415.83 265.256 415.83 286.926V323.865C415.83 343.567 405.97 353.418 386.252 353.418L292.435 353.307L270.746 331.64L327.334 275.075C336.33 267.107 342.686 256.593 345.558 244.93C348.429 233.267 347.681 221.007 343.411 209.779C339.141 198.551 331.553 188.887 321.654 182.07C311.755 175.253 300.014 171.607 287.991 171.615C274.13 171.615 262.267 178.488 253.949 184.045C250.575 186.298 249.995 186.353 246.035 184.045C237.395 179.007 225.86 171.625 212.004 171.625C199.983 171.618 188.244 175.264 178.347 182.08C168.45 188.895 160.863 198.558 156.594 209.783C152.324 221.009 151.575 233.266 154.445 244.928C157.315 256.589 163.668 267.102 172.661 275.07L208.216 310.588L228.947 289.884L193.064 254.054L192.338 253.373C187.733 249.376 184.462 244.068 182.962 238.161C181.462 232.254 181.805 226.03 183.945 220.323C186.085 214.616 189.92 209.699 194.936 206.23C199.951 202.761 205.909 200.907 212.009 200.915C217.557 200.915 224.826 205.395 230.672 208.977C237.335 213.079 243.09 216.621 250.015 216.621C256.94 216.621 262.696 213.094 269.359 208.972C275.194 205.379 282.473 200.91 288.021 200.91C294.12 200.905 300.076 202.761 305.09 206.23C310.104 209.699 313.937 214.615 316.077 220.321C318.216 226.027 318.56 232.249 317.061 238.155C315.563 244.062 312.294 249.369 307.693 253.368L207.454 353.418H113.773C94.0515 353.418 84.1906 343.567 84.1906 323.865V286.926C84.1906 265.256 74.3297 252.942 54.6079 249.982C74.3297 247.03 84.1906 234.717 84.1906 213.043V176.099C84.1906 156.398 94.0515 146.549 113.773 146.552H148.809V117H113.773C74.3129 117 54.5827 136.7 54.5827 176.099V213.043C54.5827 227.824 44.7218 235.214 25 235.214V264.766C44.7218 264.766 54.5827 272.156 54.5827 286.936V323.875C54.5827 363.275 74.3045 382.976 113.748 382.98L219.388 382.919L249.995 352.344L280.687 383H308.636H386.252C425.689 383 445.409 363.299 445.412 323.896V286.926C445.412 272.146 455.275 264.756 475 264.756V235.209C455.278 235.209 445.416 227.82 445.412 213.043Z" fill="white"/>
</svg>
