<svg width="1000" height="573" viewBox="0 0 1000 573" fill="none" xmlns="http://www.w3.org/2000/svg">
<rect width="1000" height="573" fill="black" fill-opacity="0"/>
<g clip-path="url(#clip0)">
<rect width="1000" height="573" fill="white"/>
<rect width="1000" height="573" fill="#9E337A"/>
<rect width="1000" height="573" fill="#983F7A"/>
<rect width="1000" height="573" fill="url(#paint0_radial)" style="mix-blend-mode:multiply"/>
<path d="M182.982 180.736L166.507 233.796H157.59L145.995 197.542C145.677 196.661 145.383 195.585 145.114 194.313C144.967 194.924 144.82 195.499 144.674 196.037C144.527 196.575 144.368 197.077 144.197 197.542L132.491 233.796H123.538L107.099 180.736H115.355C116.211 180.736 116.92 180.944 117.483 181.36C118.07 181.751 118.462 182.289 118.657 182.974L127.684 214.715C127.88 215.497 128.063 216.354 128.235 217.283C128.43 218.188 128.626 219.142 128.822 220.145C129.017 219.118 129.225 218.152 129.445 217.247C129.69 216.341 129.947 215.497 130.216 214.715L140.637 182.974C140.833 182.411 141.212 181.898 141.775 181.433C142.362 180.968 143.071 180.736 143.903 180.736H146.802C147.658 180.736 148.355 180.944 148.893 181.36C149.432 181.775 149.835 182.314 150.104 182.974L160.489 214.715C161.002 216.231 161.467 217.98 161.883 219.962C162.201 218.029 162.556 216.28 162.947 214.715L171.974 182.974C172.121 182.363 172.488 181.837 173.075 181.396C173.686 180.956 174.408 180.736 175.24 180.736H182.982ZM200.283 195.56C203.071 195.56 205.603 196.013 207.878 196.918C210.178 197.823 212.135 199.107 213.749 200.771C215.388 202.434 216.648 204.465 217.529 206.862C218.409 209.259 218.85 211.938 218.85 214.898C218.85 217.883 218.409 220.573 217.529 222.971C216.648 225.368 215.388 227.411 213.749 229.099C212.135 230.787 210.178 232.083 207.878 232.988C205.603 233.894 203.071 234.346 200.283 234.346C197.469 234.346 194.913 233.894 192.613 232.988C190.314 232.083 188.345 230.787 186.706 229.099C185.091 227.411 183.831 225.368 182.926 222.971C182.045 220.573 181.605 217.883 181.605 214.898C181.605 211.938 182.045 209.259 182.926 206.862C183.831 204.465 185.091 202.434 186.706 200.771C188.345 199.107 190.314 197.823 192.613 196.918C194.913 196.013 197.469 195.56 200.283 195.56ZM200.283 227.374C203.414 227.374 205.726 226.322 207.218 224.218C208.734 222.115 209.493 219.032 209.493 214.972C209.493 210.911 208.734 207.816 207.218 205.688C205.726 203.56 203.414 202.495 200.283 202.495C197.102 202.495 194.742 203.572 193.201 205.725C191.684 207.853 190.926 210.935 190.926 214.972C190.926 219.008 191.684 222.09 193.201 224.218C194.742 226.322 197.102 227.374 200.283 227.374ZM234.314 202.679C235.488 200.428 236.883 198.667 238.497 197.395C240.112 196.098 242.02 195.45 244.222 195.45C245.958 195.45 247.353 195.829 248.405 196.588L247.818 203.376C247.695 203.816 247.512 204.134 247.267 204.33C247.047 204.501 246.741 204.587 246.35 204.587C245.983 204.587 245.433 204.526 244.699 204.404C243.989 204.281 243.292 204.22 242.607 204.22C241.604 204.22 240.711 204.367 239.928 204.66C239.146 204.954 238.436 205.382 237.8 205.945C237.189 206.483 236.638 207.143 236.149 207.926C235.684 208.709 235.244 209.602 234.828 210.605V233.796H225.764V196.147H231.085C232.015 196.147 232.663 196.319 233.03 196.661C233.397 196.979 233.641 197.566 233.764 198.422L234.314 202.679ZM262.315 179.268V233.796H253.252V179.268H262.315ZM294.977 205.761C293.949 204.514 292.824 203.633 291.601 203.119C290.402 202.606 289.106 202.349 287.711 202.349C286.341 202.349 285.106 202.606 284.005 203.119C282.904 203.633 281.962 204.416 281.18 205.468C280.397 206.495 279.797 207.816 279.382 209.431C278.966 211.021 278.758 212.904 278.758 215.082C278.758 217.283 278.929 219.155 279.271 220.696C279.638 222.213 280.152 223.46 280.813 224.439C281.473 225.393 282.28 226.09 283.234 226.53C284.189 226.946 285.253 227.154 286.427 227.154C288.31 227.154 289.913 226.763 291.234 225.98C292.555 225.197 293.802 224.084 294.977 222.641V205.761ZM304.04 179.268V233.796H298.499C297.301 233.796 296.542 233.245 296.224 232.144L295.454 228.512C293.937 230.249 292.188 231.655 290.206 232.732C288.249 233.808 285.962 234.346 283.345 234.346C281.29 234.346 279.406 233.918 277.694 233.062C275.981 232.206 274.501 230.97 273.254 229.356C272.03 227.717 271.076 225.698 270.391 223.301C269.731 220.904 269.401 218.164 269.401 215.082C269.401 212.293 269.78 209.7 270.538 207.302C271.297 204.905 272.385 202.826 273.804 201.064C275.223 199.303 276.923 197.933 278.905 196.955C280.886 195.952 283.112 195.45 285.583 195.45C287.687 195.45 289.485 195.78 290.977 196.441C292.469 197.101 293.802 197.994 294.977 199.12V179.268H304.04ZM402.359 180.736L385.884 233.796H376.967L365.372 197.542C365.054 196.661 364.76 195.585 364.491 194.313C364.344 194.924 364.197 195.499 364.051 196.037C363.904 196.575 363.745 197.077 363.574 197.542L351.868 233.796H342.915L326.476 180.736H334.732C335.588 180.736 336.298 180.944 336.86 181.36C337.447 181.751 337.839 182.289 338.034 182.974L347.061 214.715C347.257 215.497 347.44 216.354 347.612 217.283C347.807 218.188 348.003 219.142 348.199 220.145C348.394 219.118 348.602 218.152 348.823 217.247C349.067 216.341 349.324 215.497 349.593 214.715L360.014 182.974C360.21 182.411 360.589 181.898 361.152 181.433C361.739 180.968 362.448 180.736 363.28 180.736H366.179C367.035 180.736 367.732 180.944 368.27 181.36C368.809 181.775 369.212 182.314 369.481 182.974L379.866 214.715C380.38 216.231 380.844 217.98 381.26 219.962C381.578 218.029 381.933 216.28 382.324 214.715L391.351 182.974C391.498 182.363 391.865 181.837 392.452 181.396C393.064 180.956 393.785 180.736 394.617 180.736H402.359ZM416.479 196.147V233.796H407.379V196.147H416.479ZM417.727 185.176C417.727 185.959 417.568 186.692 417.25 187.377C416.932 188.062 416.504 188.662 415.966 189.175C415.452 189.689 414.84 190.105 414.131 190.423C413.421 190.717 412.663 190.863 411.856 190.863C411.073 190.863 410.327 190.717 409.617 190.423C408.932 190.105 408.333 189.689 407.819 189.175C407.306 188.662 406.89 188.062 406.572 187.377C406.278 186.692 406.131 185.959 406.131 185.176C406.131 184.369 406.278 183.61 406.572 182.901C406.89 182.191 407.306 181.58 407.819 181.066C408.333 180.552 408.932 180.149 409.617 179.855C410.327 179.537 411.073 179.378 411.856 179.378C412.663 179.378 413.421 179.537 414.131 179.855C414.84 180.149 415.452 180.552 415.966 181.066C416.504 181.58 416.932 182.191 417.25 182.901C417.568 183.61 417.727 184.369 417.727 185.176ZM449.35 205.761C448.323 204.514 447.198 203.633 445.975 203.119C444.776 202.606 443.479 202.349 442.085 202.349C440.715 202.349 439.48 202.606 438.379 203.119C437.278 203.633 436.336 204.416 435.553 205.468C434.771 206.495 434.171 207.816 433.755 209.431C433.34 211.021 433.132 212.904 433.132 215.082C433.132 217.283 433.303 219.155 433.645 220.696C434.012 222.213 434.526 223.46 435.186 224.439C435.847 225.393 436.654 226.09 437.608 226.53C438.562 226.946 439.626 227.154 440.801 227.154C442.684 227.154 444.287 226.763 445.608 225.98C446.929 225.197 448.176 224.084 449.35 222.641V205.761ZM458.414 179.268V233.796H452.873C451.674 233.796 450.916 233.245 450.598 232.144L449.827 228.512C448.311 230.249 446.562 231.655 444.58 232.732C442.623 233.808 440.336 234.346 437.718 234.346C435.663 234.346 433.78 233.918 432.067 233.062C430.355 232.206 428.875 230.97 427.627 229.356C426.404 227.717 425.45 225.698 424.765 223.301C424.105 220.904 423.775 218.164 423.775 215.082C423.775 212.293 424.154 209.7 424.912 207.302C425.67 204.905 426.759 202.826 428.178 201.064C429.597 199.303 431.297 197.933 433.278 196.955C435.26 195.952 437.486 195.45 439.957 195.45C442.061 195.45 443.859 195.78 445.351 196.441C446.843 197.101 448.176 197.994 449.35 199.12V179.268H458.414ZM491.614 210.642C491.614 209.467 491.442 208.367 491.1 207.339C490.782 206.287 490.293 205.37 489.632 204.587C488.972 203.804 488.128 203.193 487.1 202.752C486.097 202.288 484.923 202.055 483.578 202.055C480.96 202.055 478.893 202.801 477.376 204.293C475.884 205.786 474.93 207.902 474.514 210.642H491.614ZM474.331 216.109C474.477 218.042 474.82 219.717 475.358 221.136C475.896 222.531 476.606 223.693 477.486 224.622C478.367 225.527 479.407 226.212 480.605 226.677C481.828 227.117 483.174 227.337 484.642 227.337C486.109 227.337 487.369 227.166 488.421 226.824C489.498 226.481 490.427 226.102 491.21 225.686C492.017 225.27 492.714 224.891 493.302 224.549C493.913 224.206 494.5 224.035 495.063 224.035C495.821 224.035 496.384 224.316 496.751 224.879L499.356 228.181C498.353 229.356 497.228 230.346 495.98 231.154C494.733 231.936 493.424 232.573 492.054 233.062C490.708 233.527 489.326 233.857 487.907 234.053C486.513 234.248 485.155 234.346 483.834 234.346C481.217 234.346 478.783 233.918 476.532 233.062C474.282 232.181 472.325 230.897 470.661 229.209C468.998 227.496 467.689 225.393 466.735 222.897C465.781 220.378 465.304 217.467 465.304 214.164C465.304 211.596 465.72 209.186 466.551 206.935C467.383 204.66 468.57 202.691 470.111 201.028C471.676 199.34 473.572 198.007 475.798 197.028C478.049 196.05 480.581 195.56 483.394 195.56C485.767 195.56 487.956 195.939 489.962 196.698C491.968 197.456 493.693 198.569 495.136 200.037C496.58 201.48 497.705 203.266 498.512 205.394C499.344 207.498 499.76 209.908 499.76 212.623C499.76 213.993 499.613 214.923 499.319 215.412C499.026 215.877 498.463 216.109 497.631 216.109H474.331ZM572.953 207.266C572.953 211.155 572.305 214.727 571.008 217.98C569.712 221.234 567.889 224.035 565.541 226.383C563.193 228.732 560.367 230.554 557.065 231.851C553.762 233.147 550.093 233.796 546.056 233.796H525.838V180.736H546.056C550.093 180.736 553.762 181.396 557.065 182.717C560.367 184.014 563.193 185.836 565.541 188.185C567.889 190.509 569.712 193.297 571.008 196.551C572.305 199.805 572.953 203.376 572.953 207.266ZM562.826 207.266C562.826 204.355 562.434 201.749 561.651 199.45C560.893 197.126 559.78 195.169 558.312 193.579C556.869 191.964 555.108 190.729 553.028 189.873C550.973 189.016 548.649 188.588 546.056 188.588H535.745V225.943H546.056C548.649 225.943 550.973 225.515 553.028 224.659C555.108 223.803 556.869 222.579 558.312 220.989C559.78 219.375 560.893 217.418 561.651 215.118C562.434 212.794 562.826 210.177 562.826 207.266ZM603.99 210.642C603.99 209.467 603.818 208.367 603.476 207.339C603.158 206.287 602.669 205.37 602.008 204.587C601.348 203.804 600.504 203.193 599.476 202.752C598.473 202.288 597.299 202.055 595.954 202.055C593.336 202.055 591.269 202.801 589.752 204.293C588.26 205.786 587.306 207.902 586.89 210.642H603.99ZM586.707 216.109C586.853 218.042 587.196 219.717 587.734 221.136C588.272 222.531 588.982 223.693 589.862 224.622C590.743 225.527 591.783 226.212 592.981 226.677C594.205 227.117 595.55 227.337 597.018 227.337C598.486 227.337 599.745 227.166 600.797 226.824C601.874 226.481 602.803 226.102 603.586 225.686C604.393 225.27 605.091 224.891 605.678 224.549C606.289 224.206 606.876 224.035 607.439 224.035C608.197 224.035 608.76 224.316 609.127 224.879L611.732 228.181C610.729 229.356 609.604 230.346 608.356 231.154C607.109 231.936 605.8 232.573 604.43 233.062C603.085 233.527 601.702 233.857 600.284 234.053C598.889 234.248 597.532 234.346 596.211 234.346C593.593 234.346 591.159 233.918 588.908 233.062C586.658 232.181 584.701 230.897 583.037 229.209C581.374 227.496 580.065 225.393 579.111 222.897C578.157 220.378 577.68 217.467 577.68 214.164C577.68 211.596 578.096 209.186 578.928 206.935C579.759 204.66 580.946 202.691 582.487 201.028C584.053 199.34 585.948 198.007 588.174 197.028C590.425 196.05 592.957 195.56 595.77 195.56C598.143 195.56 600.333 195.939 602.338 196.698C604.344 197.456 606.069 198.569 607.512 200.037C608.956 201.48 610.081 203.266 610.888 205.394C611.72 207.498 612.136 209.908 612.136 212.623C612.136 213.993 611.989 214.923 611.695 215.412C611.402 215.877 610.839 216.109 610.008 216.109H586.707ZM651.948 196.147L637.013 233.796H628.794L613.859 196.147H621.345C622.03 196.147 622.593 196.306 623.033 196.624C623.498 196.942 623.803 197.346 623.95 197.835L631.216 217.944C631.607 219.118 631.95 220.268 632.243 221.393C632.537 222.518 632.794 223.644 633.014 224.769C633.258 223.644 633.527 222.518 633.821 221.393C634.115 220.268 634.469 219.118 634.885 217.944L642.297 197.835C642.469 197.346 642.774 196.942 643.215 196.624C643.655 196.306 644.181 196.147 644.793 196.147H651.948ZM679.887 210.642C679.887 209.467 679.715 208.367 679.373 207.339C679.055 206.287 678.566 205.37 677.905 204.587C677.245 203.804 676.401 203.193 675.373 202.752C674.37 202.288 673.196 202.055 671.851 202.055C669.233 202.055 667.166 202.801 665.649 204.293C664.157 205.786 663.203 207.902 662.787 210.642H679.887ZM662.604 216.109C662.75 218.042 663.093 219.717 663.631 221.136C664.169 222.531 664.879 223.693 665.759 224.622C666.64 225.527 667.68 226.212 668.878 226.677C670.101 227.117 671.447 227.337 672.915 227.337C674.382 227.337 675.642 227.166 676.694 226.824C677.771 226.481 678.7 226.102 679.483 225.686C680.29 225.27 680.987 224.891 681.574 224.549C682.186 224.206 682.773 224.035 683.336 224.035C684.094 224.035 684.657 224.316 685.024 224.879L687.629 228.181C686.626 229.356 685.501 230.346 684.253 231.154C683.006 231.936 681.697 232.573 680.327 233.062C678.981 233.527 677.599 233.857 676.18 234.053C674.786 234.248 673.428 234.346 672.107 234.346C669.49 234.346 667.056 233.918 664.805 233.062C662.555 232.181 660.598 230.897 658.934 229.209C657.271 227.496 655.962 225.393 655.008 222.897C654.054 220.378 653.577 217.467 653.577 214.164C653.577 211.596 653.993 209.186 654.824 206.935C655.656 204.66 656.843 202.691 658.384 201.028C659.949 199.34 661.845 198.007 664.071 197.028C666.322 196.05 668.854 195.56 671.667 195.56C674.04 195.56 676.229 195.939 678.235 196.698C680.241 197.456 681.966 198.569 683.409 200.037C684.853 201.48 685.978 203.266 686.785 205.394C687.617 207.498 688.033 209.908 688.033 212.623C688.033 213.993 687.886 214.923 687.592 215.412C687.299 215.877 686.736 216.109 685.904 216.109H662.604ZM704.008 179.268V233.796H694.944V179.268H704.008ZM729.697 195.56C732.486 195.56 735.018 196.013 737.293 196.918C739.592 197.823 741.55 199.107 743.164 200.771C744.803 202.434 746.063 204.465 746.944 206.862C747.824 209.259 748.265 211.938 748.265 214.898C748.265 217.883 747.824 220.573 746.944 222.971C746.063 225.368 744.803 227.411 743.164 229.099C741.55 230.787 739.592 232.083 737.293 232.988C735.018 233.894 732.486 234.346 729.697 234.346C726.884 234.346 724.328 233.894 722.028 232.988C719.729 232.083 717.759 230.787 716.12 229.099C714.506 227.411 713.246 225.368 712.341 222.971C711.46 220.573 711.02 217.883 711.02 214.898C711.02 211.938 711.46 209.259 712.341 206.862C713.246 204.465 714.506 202.434 716.12 200.771C717.759 199.107 719.729 197.823 722.028 196.918C724.328 196.013 726.884 195.56 729.697 195.56ZM729.697 227.374C732.829 227.374 735.14 226.322 736.632 224.218C738.149 222.115 738.908 219.032 738.908 214.972C738.908 210.911 738.149 207.816 736.632 205.688C735.14 203.56 732.829 202.495 729.697 202.495C726.517 202.495 724.156 203.572 722.615 205.725C721.099 207.853 720.34 210.935 720.34 214.972C720.34 219.008 721.099 222.09 722.615 224.218C724.156 226.322 726.517 227.374 729.697 227.374ZM764.243 224.035C765.27 225.283 766.383 226.163 767.582 226.677C768.805 227.191 770.126 227.448 771.545 227.448C772.915 227.448 774.15 227.191 775.251 226.677C776.352 226.163 777.281 225.38 778.04 224.329C778.822 223.277 779.422 221.956 779.838 220.366C780.254 218.751 780.461 216.855 780.461 214.678C780.461 212.476 780.278 210.617 779.911 209.1C779.569 207.559 779.067 206.312 778.407 205.358C777.746 204.404 776.939 203.706 775.985 203.266C775.055 202.826 773.991 202.606 772.792 202.606C770.909 202.606 769.306 203.009 767.985 203.816C766.664 204.599 765.417 205.712 764.243 207.156V224.035ZM763.766 201.285C765.307 199.548 767.056 198.141 769.013 197.065C770.97 195.988 773.269 195.45 775.911 195.45C777.966 195.45 779.838 195.878 781.526 196.734C783.238 197.591 784.706 198.838 785.929 200.477C787.177 202.092 788.131 204.098 788.791 206.495C789.476 208.868 789.819 211.596 789.819 214.678C789.819 217.491 789.439 220.096 788.681 222.494C787.923 224.891 786.834 226.971 785.415 228.732C784.021 230.493 782.321 231.875 780.315 232.878C778.333 233.857 776.107 234.346 773.636 234.346C771.533 234.346 769.735 234.028 768.242 233.392C766.75 232.732 765.417 231.826 764.243 230.677V246.088H755.179V196.147H760.72C761.894 196.147 762.665 196.698 763.032 197.799L763.766 201.285ZM821.145 210.642C821.145 209.467 820.974 208.367 820.631 207.339C820.313 206.287 819.824 205.37 819.164 204.587C818.503 203.804 817.659 203.193 816.632 202.752C815.629 202.288 814.454 202.055 813.109 202.055C810.491 202.055 808.424 202.801 806.908 204.293C805.415 205.786 804.461 207.902 804.046 210.642H821.145ZM803.862 216.109C804.009 218.042 804.351 219.717 804.889 221.136C805.428 222.531 806.137 223.693 807.018 224.622C807.898 225.527 808.938 226.212 810.137 226.677C811.36 227.117 812.705 227.337 814.173 227.337C815.641 227.337 816.901 227.166 817.953 226.824C819.029 226.481 819.959 226.102 820.741 225.686C821.549 225.27 822.246 224.891 822.833 224.549C823.445 224.206 824.032 224.035 824.594 224.035C825.353 224.035 825.915 224.316 826.282 224.879L828.888 228.181C827.885 229.356 826.759 230.346 825.512 231.154C824.264 231.936 822.955 232.573 821.585 233.062C820.24 233.527 818.858 233.857 817.439 234.053C816.045 234.248 814.687 234.346 813.366 234.346C810.748 234.346 808.314 233.918 806.064 233.062C803.813 232.181 801.856 230.897 800.193 229.209C798.529 227.496 797.22 225.393 796.266 222.897C795.312 220.378 794.835 217.467 794.835 214.164C794.835 211.596 795.251 209.186 796.083 206.935C796.915 204.66 798.101 202.691 799.642 201.028C801.208 199.34 803.104 198.007 805.33 197.028C807.58 196.05 810.112 195.56 812.926 195.56C815.298 195.56 817.488 195.939 819.494 196.698C821.5 197.456 823.224 198.569 824.668 200.037C826.111 201.48 827.236 203.266 828.044 205.394C828.875 207.498 829.291 209.908 829.291 212.623C829.291 213.993 829.144 214.923 828.851 215.412C828.557 215.877 827.995 216.109 827.163 216.109H803.862ZM844.643 202.679C845.817 200.428 847.211 198.667 848.826 197.395C850.44 196.098 852.348 195.45 854.55 195.45C856.287 195.45 857.681 195.829 858.733 196.588L858.146 203.376C858.024 203.816 857.84 204.134 857.596 204.33C857.375 204.501 857.07 204.587 856.678 204.587C856.311 204.587 855.761 204.526 855.027 204.404C854.318 204.281 853.62 204.22 852.935 204.22C851.932 204.22 851.04 204.367 850.257 204.66C849.474 204.954 848.765 205.382 848.128 205.945C847.517 206.483 846.967 207.143 846.477 207.926C846.012 208.709 845.572 209.602 845.156 210.605V233.796H836.093V196.147H841.413C842.343 196.147 842.991 196.319 843.358 196.661C843.725 196.979 843.97 197.566 844.092 198.422L844.643 202.679ZM886.297 203.486C886.053 203.878 885.796 204.159 885.527 204.33C885.258 204.477 884.915 204.55 884.499 204.55C884.059 204.55 883.582 204.428 883.068 204.183C882.579 203.939 882.004 203.67 881.344 203.376C880.683 203.058 879.925 202.777 879.069 202.532C878.237 202.288 877.246 202.165 876.096 202.165C874.311 202.165 872.904 202.544 871.877 203.303C870.874 204.061 870.372 205.052 870.372 206.275C870.372 207.082 870.629 207.767 871.143 208.33C871.681 208.868 872.378 209.345 873.234 209.761C874.115 210.177 875.106 210.556 876.206 210.898C877.307 211.216 878.42 211.571 879.546 211.963C880.695 212.354 881.821 212.807 882.922 213.32C884.022 213.81 885.001 214.446 885.857 215.228C886.738 215.987 887.435 216.904 887.949 217.98C888.487 219.057 888.756 220.353 888.756 221.87C888.756 223.68 888.426 225.356 887.765 226.897C887.129 228.414 886.175 229.735 884.903 230.86C883.631 231.961 882.053 232.829 880.169 233.465C878.31 234.077 876.158 234.383 873.711 234.383C872.415 234.383 871.143 234.26 869.895 234.016C868.672 233.796 867.485 233.478 866.336 233.062C865.21 232.646 864.159 232.157 863.18 231.594C862.226 231.031 861.382 230.42 860.648 229.759L862.74 226.31C863.009 225.894 863.327 225.576 863.694 225.356C864.061 225.136 864.525 225.026 865.088 225.026C865.651 225.026 866.177 225.185 866.666 225.503C867.18 225.821 867.767 226.163 868.427 226.53C869.088 226.897 869.858 227.24 870.739 227.558C871.644 227.876 872.782 228.035 874.152 228.035C875.228 228.035 876.145 227.912 876.904 227.668C877.686 227.399 878.323 227.056 878.812 226.64C879.325 226.224 879.692 225.747 879.913 225.209C880.157 224.647 880.28 224.072 880.28 223.485C880.28 222.604 880.01 221.882 879.472 221.32C878.959 220.757 878.261 220.268 877.381 219.852C876.524 219.436 875.534 219.069 874.408 218.751C873.308 218.409 872.17 218.042 870.996 217.65C869.846 217.259 868.709 216.806 867.583 216.293C866.482 215.754 865.492 215.082 864.611 214.274C863.755 213.467 863.058 212.476 862.52 211.302C862.006 210.128 861.749 208.709 861.749 207.046C861.749 205.504 862.055 204.037 862.666 202.642C863.278 201.248 864.171 200.037 865.345 199.01C866.544 197.958 868.024 197.126 869.785 196.514C871.571 195.878 873.626 195.56 875.95 195.56C878.543 195.56 880.903 195.988 883.032 196.845C885.16 197.701 886.933 198.826 888.352 200.22L886.297 203.486Z" fill="#F05E75"/>
<path d="M129.784 332.98V357.951C126.276 360.434 122.536 362.337 118.564 363.661C114.593 364.985 110.125 365.646 105.16 365.646C99.5998 365.646 94.6022 364.803 90.1672 363.115C85.7323 361.394 81.9427 358.977 78.7985 355.866C75.6874 352.722 73.2879 348.933 71.5999 344.498C69.9451 340.063 69.1177 335.131 69.1177 329.703C69.1177 324.276 69.9286 319.361 71.5503 314.959C73.2051 310.524 75.555 306.751 78.5999 303.64C81.6779 300.496 85.3847 298.079 89.7204 296.392C94.0561 294.67 98.9379 293.81 104.366 293.81C107.047 293.81 109.512 293.992 111.763 294.356C114.047 294.72 116.165 295.266 118.117 295.994C120.07 296.689 121.89 297.566 123.578 298.626C125.266 299.652 126.888 300.843 128.444 302.2L127.054 304.384C126.59 305.179 125.895 305.361 124.968 304.93C124.472 304.732 123.76 304.269 122.834 303.54C121.907 302.812 120.633 302.051 119.011 301.257C117.389 300.462 115.37 299.751 112.954 299.122C110.571 298.493 107.659 298.179 104.217 298.179C99.6495 298.179 95.5124 298.907 91.8055 300.363C88.1318 301.819 84.9876 303.904 82.3729 306.618C79.7914 309.332 77.789 312.642 76.3659 316.547C74.9758 320.453 74.2808 324.838 74.2808 329.703C74.2808 334.635 74.9758 339.07 76.3659 343.008C77.789 346.947 79.8245 350.29 82.4722 353.037C85.1531 355.784 88.3966 357.885 92.2027 359.342C96.0088 360.798 100.295 361.526 105.061 361.526C107.146 361.526 109.065 361.394 110.82 361.129C112.607 360.864 114.295 360.5 115.883 360.037C117.505 359.54 119.061 358.944 120.55 358.249C122.073 357.521 123.612 356.71 125.167 355.817V336.902H111.713C111.349 336.902 111.035 336.786 110.77 336.554C110.538 336.323 110.422 336.058 110.422 335.76V332.98H129.784ZM149.048 315.455V364.852H144.332V315.455H149.048ZM151.083 298.427C151.083 299.023 150.951 299.585 150.686 300.115C150.455 300.611 150.14 301.058 149.743 301.455C149.346 301.852 148.882 302.167 148.353 302.399C147.823 302.63 147.261 302.746 146.665 302.746C146.069 302.746 145.507 302.63 144.977 302.399C144.447 302.167 143.984 301.852 143.587 301.455C143.19 301.058 142.875 300.611 142.644 300.115C142.412 299.585 142.296 299.023 142.296 298.427C142.296 297.831 142.412 297.269 142.644 296.739C142.875 296.176 143.19 295.696 143.587 295.299C143.984 294.902 144.447 294.588 144.977 294.356C145.507 294.124 146.069 294.009 146.665 294.009C147.261 294.009 147.823 294.124 148.353 294.356C148.882 294.588 149.346 294.902 149.743 295.299C150.14 295.696 150.455 296.176 150.686 296.739C150.951 297.269 151.083 297.831 151.083 298.427ZM205.56 315.455L184.709 364.852H180.538L159.687 315.455H163.411C163.874 315.455 164.255 315.588 164.553 315.852C164.851 316.084 165.049 316.349 165.148 316.647L181.482 355.618C181.978 357.074 182.375 358.514 182.673 359.937C182.971 358.514 183.385 357.074 183.914 355.618L200.297 316.647C200.463 316.283 200.678 316.001 200.943 315.803C201.24 315.571 201.588 315.455 201.985 315.455H205.56ZM249.221 335.164C249.221 332.517 248.84 330.15 248.079 328.065C247.351 325.947 246.308 324.16 244.951 322.703C243.595 321.247 241.973 320.138 240.086 319.377C238.233 318.583 236.181 318.186 233.93 318.186C231.382 318.186 229.098 318.583 227.079 319.377C225.06 320.172 223.306 321.313 221.817 322.803C220.361 324.292 219.186 326.079 218.292 328.164C217.398 330.25 216.803 332.583 216.505 335.164H249.221ZM216.257 338.193V339.136C216.257 342.843 216.687 346.103 217.547 348.916C218.408 351.729 219.632 354.096 221.221 356.015C222.81 357.902 224.729 359.325 226.98 360.285C229.231 361.245 231.746 361.725 234.526 361.725C237.008 361.725 239.16 361.46 240.98 360.93C242.8 360.368 244.323 359.755 245.547 359.093C246.805 358.398 247.798 357.786 248.526 357.256C249.254 356.694 249.784 356.412 250.115 356.412C250.545 356.412 250.876 356.578 251.107 356.909L252.398 358.498C251.604 359.49 250.545 360.417 249.221 361.278C247.93 362.138 246.474 362.883 244.852 363.512C243.264 364.107 241.543 364.587 239.689 364.951C237.869 365.316 236.032 365.498 234.178 365.498C230.803 365.498 227.725 364.918 224.944 363.76C222.164 362.568 219.781 360.847 217.796 358.597C215.81 356.346 214.271 353.599 213.179 350.356C212.119 347.079 211.59 343.339 211.59 339.136C211.59 335.595 212.086 332.335 213.079 329.356C214.105 326.344 215.562 323.763 217.448 321.611C219.368 319.427 221.701 317.722 224.448 316.498C227.228 315.273 230.372 314.661 233.881 314.661C236.661 314.661 239.242 315.141 241.625 316.101C244.008 317.06 246.077 318.467 247.831 320.32C249.585 322.141 250.959 324.391 251.951 327.072C252.977 329.753 253.49 332.831 253.49 336.306C253.49 337.034 253.391 337.531 253.193 337.796C252.994 338.06 252.663 338.193 252.2 338.193H216.257ZM300.65 364.852H295.537V294.604H300.65V364.852ZM367.099 298.923H342.426V364.852H337.312V298.923H312.49V294.604H367.099V298.923ZM414.144 365.646C410.802 365.646 408.187 364.72 406.301 362.866C404.447 361.013 403.52 358.15 403.52 354.278V320.519H396.421C396.057 320.519 395.759 320.42 395.528 320.221C395.296 320.023 395.18 319.741 395.18 319.377V317.54L403.62 316.945L404.811 299.271C404.877 298.973 405.01 298.708 405.208 298.477C405.407 298.245 405.688 298.129 406.052 298.129H408.286V316.994H423.875V320.519H408.286V354.03C408.286 355.386 408.452 356.561 408.783 357.554C409.147 358.514 409.627 359.308 410.222 359.937C410.851 360.566 411.579 361.029 412.407 361.327C413.234 361.625 414.128 361.774 415.088 361.774C416.279 361.774 417.305 361.609 418.166 361.278C419.026 360.914 419.771 360.533 420.4 360.136C421.029 359.706 421.542 359.325 421.939 358.994C422.336 358.63 422.65 358.448 422.882 358.448C423.147 358.448 423.412 358.613 423.676 358.944L424.967 361.029C423.709 362.42 422.104 363.545 420.152 364.405C418.232 365.233 416.23 365.646 414.144 365.646ZM454.041 314.661C457.583 314.661 460.743 315.273 463.524 316.498C466.337 317.689 468.703 319.394 470.623 321.611C472.542 323.829 473.999 326.51 474.992 329.654C476.018 332.765 476.531 336.257 476.531 340.129C476.531 344.001 476.018 347.493 474.992 350.604C473.999 353.715 472.542 356.379 470.623 358.597C468.703 360.814 466.337 362.519 463.524 363.71C460.743 364.902 457.583 365.498 454.041 365.498C450.5 365.498 447.323 364.902 444.509 363.71C441.729 362.519 439.363 360.814 437.41 358.597C435.491 356.379 434.018 353.715 432.992 350.604C431.999 347.493 431.502 344.001 431.502 340.129C431.502 336.257 431.999 332.765 432.992 329.654C434.018 326.51 435.491 323.829 437.41 321.611C439.363 319.394 441.729 317.689 444.509 316.498C447.323 315.273 450.5 314.661 454.041 314.661ZM454.041 361.774C456.987 361.774 459.552 361.278 461.736 360.285C463.954 359.259 465.791 357.803 467.247 355.916C468.736 354.03 469.845 351.762 470.573 349.115C471.301 346.434 471.665 343.439 471.665 340.129C471.665 336.852 471.301 333.874 470.573 331.193C469.845 328.512 468.736 326.228 467.247 324.342C465.791 322.422 463.954 320.949 461.736 319.923C459.552 318.897 456.987 318.384 454.041 318.384C451.096 318.384 448.514 318.897 446.297 319.923C444.112 320.949 442.275 322.422 440.786 324.342C439.33 326.228 438.221 328.512 437.46 331.193C436.732 333.874 436.368 336.852 436.368 340.129C436.368 343.439 436.732 346.434 437.46 349.115C438.221 351.762 439.33 354.03 440.786 355.916C442.275 357.803 444.112 359.259 446.297 360.285C448.514 361.278 451.096 361.774 454.041 361.774ZM530.306 365.646C526.964 365.646 524.349 364.72 522.462 362.866C520.609 361.013 519.682 358.15 519.682 354.278V320.519H512.583C512.219 320.519 511.921 320.42 511.689 320.221C511.458 320.023 511.342 319.741 511.342 319.377V317.54L519.782 316.945L520.973 299.271C521.039 298.973 521.172 298.708 521.37 298.477C521.569 298.245 521.85 298.129 522.214 298.129H524.448V316.994H540.037V320.519H524.448V354.03C524.448 355.386 524.614 356.561 524.945 357.554C525.309 358.514 525.789 359.308 526.384 359.937C527.013 360.566 527.741 361.029 528.569 361.327C529.396 361.625 530.29 361.774 531.25 361.774C532.441 361.774 533.467 361.609 534.328 361.278C535.188 360.914 535.933 360.533 536.562 360.136C537.19 359.706 537.703 359.325 538.101 358.994C538.498 358.63 538.812 358.448 539.044 358.448C539.309 358.448 539.573 358.613 539.838 358.944L541.129 361.029C539.871 362.42 538.266 363.545 536.313 364.405C534.394 365.233 532.391 365.646 530.306 365.646ZM555.603 323.796C557.887 321.016 560.485 318.798 563.397 317.143C566.343 315.488 569.636 314.661 573.277 314.661C575.99 314.661 578.373 315.091 580.425 315.952C582.511 316.812 584.232 318.053 585.589 319.675C586.946 321.297 587.972 323.25 588.667 325.533C589.362 327.817 589.709 330.398 589.709 333.278V364.852H584.943V333.278C584.943 328.644 583.884 325.02 581.766 322.406C579.648 319.758 576.421 318.434 572.085 318.434C568.875 318.434 565.863 319.261 563.05 320.916C560.27 322.538 557.787 324.805 555.603 327.718V364.852H550.837V292.618H555.603V323.796ZM640.08 335.164C640.08 332.517 639.699 330.15 638.938 328.065C638.21 325.947 637.167 324.16 635.81 322.703C634.453 321.247 632.831 320.138 630.945 319.377C629.091 318.583 627.039 318.186 624.789 318.186C622.24 318.186 619.957 318.583 617.938 319.377C615.919 320.172 614.165 321.313 612.675 322.803C611.219 324.292 610.044 326.079 609.151 328.164C608.257 330.25 607.661 332.583 607.363 335.164H640.08ZM607.115 338.193V339.136C607.115 342.843 607.545 346.103 608.406 348.916C609.266 351.729 610.491 354.096 612.08 356.015C613.668 357.902 615.588 359.325 617.838 360.285C620.089 361.245 622.604 361.725 625.385 361.725C627.867 361.725 630.018 361.46 631.838 360.93C633.659 360.368 635.181 359.755 636.406 359.093C637.663 358.398 638.656 357.786 639.384 357.256C640.113 356.694 640.642 356.412 640.973 356.412C641.403 356.412 641.734 356.578 641.966 356.909L643.257 358.498C642.462 359.49 641.403 360.417 640.08 361.278C638.789 362.138 637.332 362.883 635.711 363.512C634.122 364.107 632.401 364.587 630.548 364.951C628.727 365.316 626.89 365.498 625.037 365.498C621.661 365.498 618.583 364.918 615.803 363.76C613.023 362.568 610.64 360.847 608.654 358.597C606.668 356.346 605.129 353.599 604.037 350.356C602.978 347.079 602.448 343.339 602.448 339.136C602.448 335.595 602.945 332.335 603.938 329.356C604.964 326.344 606.42 323.763 608.307 321.611C610.226 319.427 612.56 317.722 615.307 316.498C618.087 315.273 621.231 314.661 624.739 314.661C627.519 314.661 630.101 315.141 632.484 316.101C634.867 317.06 636.935 318.467 638.689 320.32C640.444 322.141 641.817 324.391 642.81 327.072C643.836 329.753 644.349 332.831 644.349 336.306C644.349 337.034 644.25 337.531 644.051 337.796C643.853 338.06 643.522 338.193 643.058 338.193H607.115ZM772.385 294.604L750.293 364.852H745.725L724.974 303.888C724.709 303.061 724.477 302.2 724.278 301.306C724.08 302.2 723.848 303.061 723.583 303.888L702.782 364.852H698.264L676.123 294.604H680.343C681.302 294.604 681.915 295.051 682.179 295.945L699.903 353.682C700.267 355.006 700.598 356.512 700.896 358.2C701.061 357.339 701.227 356.545 701.392 355.817C701.558 355.056 701.756 354.344 701.988 353.682L721.846 295.945C721.978 295.581 722.21 295.266 722.541 295.001C722.872 294.737 723.269 294.604 723.732 294.604H725.122C725.586 294.604 725.966 294.737 726.264 295.001C726.562 295.233 726.794 295.548 726.959 295.945L746.817 353.682C747.049 354.311 747.248 355.006 747.413 355.767C747.612 356.528 747.794 357.323 747.959 358.15C748.125 357.323 748.274 356.545 748.406 355.817C748.572 355.056 748.737 354.344 748.902 353.682L766.626 295.945C766.725 295.581 766.94 295.266 767.271 295.001C767.635 294.737 768.049 294.604 768.512 294.604H772.385ZM797.388 314.661C800.929 314.661 804.09 315.273 806.87 316.498C809.683 317.689 812.05 319.394 813.969 321.611C815.889 323.829 817.345 326.51 818.338 329.654C819.364 332.765 819.877 336.257 819.877 340.129C819.877 344.001 819.364 347.493 818.338 350.604C817.345 353.715 815.889 356.379 813.969 358.597C812.05 360.814 809.683 362.519 806.87 363.71C804.09 364.902 800.929 365.498 797.388 365.498C793.847 365.498 790.669 364.902 787.856 363.71C785.076 362.519 782.709 360.814 780.757 358.597C778.837 356.379 777.364 353.715 776.338 350.604C775.345 347.493 774.849 344.001 774.849 340.129C774.849 336.257 775.345 332.765 776.338 329.654C777.364 326.51 778.837 323.829 780.757 321.611C782.709 319.394 785.076 317.689 787.856 316.498C790.669 315.273 793.847 314.661 797.388 314.661ZM797.388 361.774C800.334 361.774 802.899 361.278 805.083 360.285C807.3 359.259 809.137 357.803 810.594 355.916C812.083 354.03 813.192 351.762 813.92 349.115C814.648 346.434 815.012 343.439 815.012 340.129C815.012 336.852 814.648 333.874 813.92 331.193C813.192 328.512 812.083 326.228 810.594 324.342C809.137 322.422 807.3 320.949 805.083 319.923C802.899 318.897 800.334 318.384 797.388 318.384C794.442 318.384 791.861 318.897 789.643 319.923C787.459 320.949 785.622 322.422 784.133 324.342C782.676 326.228 781.568 328.512 780.806 331.193C780.078 333.874 779.714 336.852 779.714 340.129C779.714 343.439 780.078 346.434 780.806 349.115C781.568 351.762 782.676 354.03 784.133 355.916C785.622 357.803 787.459 359.259 789.643 360.285C791.861 361.278 794.442 361.774 797.388 361.774ZM837.711 327.37C838.473 325.351 839.333 323.564 840.293 322.008C841.286 320.42 842.411 319.079 843.669 317.987C844.96 316.895 846.383 316.068 847.938 315.505C849.527 314.909 851.281 314.611 853.201 314.611C854.227 314.611 855.236 314.711 856.229 314.909C857.222 315.075 858.099 315.389 858.86 315.852L858.463 319.129C858.298 319.659 857.983 319.923 857.52 319.923C857.123 319.923 856.51 319.807 855.683 319.576C854.889 319.344 853.83 319.228 852.506 319.228C850.586 319.228 848.882 319.526 847.392 320.122C845.936 320.685 844.612 321.545 843.421 322.703C842.262 323.862 841.236 325.302 840.343 327.023C839.482 328.711 838.688 330.663 837.96 332.881V364.852H833.194V315.455H835.726C836.288 315.455 836.685 315.571 836.917 315.803C837.149 316.034 837.298 316.432 837.364 316.994L837.711 327.37ZM873.507 292.618V364.852H868.741V292.618H873.507ZM923.917 326.079C922.031 323.233 919.929 321.231 917.612 320.072C915.328 318.914 912.714 318.335 909.768 318.335C906.856 318.335 904.307 318.864 902.123 319.923C899.938 320.982 898.102 322.488 896.612 324.441C895.156 326.361 894.047 328.677 893.286 331.391C892.558 334.072 892.194 337.034 892.194 340.278C892.194 347.625 893.534 353.037 896.215 356.512C898.929 359.954 902.834 361.675 907.931 361.675C911.175 361.675 914.137 360.831 916.818 359.143C919.499 357.455 921.865 355.089 923.917 352.044V326.079ZM928.633 292.618V364.852H926.052C925.191 364.852 924.695 364.422 924.562 363.561L924.066 355.767C921.882 358.746 919.333 361.112 916.421 362.866C913.508 364.62 910.232 365.498 906.591 365.498C900.501 365.498 895.768 363.396 892.392 359.193C889.017 354.989 887.329 348.684 887.329 340.278C887.329 336.67 887.792 333.311 888.719 330.2C889.678 327.056 891.069 324.342 892.889 322.058C894.709 319.741 896.943 317.921 899.591 316.597C902.272 315.273 905.35 314.611 908.825 314.611C912.168 314.611 915.064 315.224 917.513 316.448C919.962 317.673 922.097 319.493 923.917 321.909V292.618H928.633Z" fill="white"/>
<line x1="372.662" y1="271.17" x2="627.338" y2="271.17" stroke="black" stroke-width="2.87798"/>
</g>
<defs>
<radialGradient id="paint0_radial" cx="0" cy="0" r="1" gradientUnits="userSpaceOnUse" gradientTransform="translate(500 286.5) rotate(90) scale(286.5 500)">
<stop stop-color="white" stop-opacity="0"/>
<stop offset="1" stop-color="#8D8D8D" stop-opacity="0.64"/>
</radialGradient>
<clipPath id="clip0">
<rect width="1000" height="573" fill="white"/>
</clipPath>
</defs>
</svg>
